<?xml version="1.0" encoding="UTF-8"?>
<svg version="1.1" xmlns="http://www.w3.org/2000/svg" width="500" height="500">
<path d="M0 0 C0.639375 0.33 1.27875 0.66 1.9375 1 C1.9375 1.66 1.9375 2.32 1.9375 3 C2.5975 3 3.2575 3 3.9375 3 C5.04565622 8.37081848 4.7923198 11.55638559 2.75 16.625 C2.35820557 17.61560425 2.35820557 17.61560425 1.95849609 18.6262207 C0.9729391 21.09337843 -0.04294853 23.54669062 -1.0625 26 C-1.50384277 27.06750488 -1.94518555 28.13500977 -2.39990234 29.23486328 C-4.17474564 33.52580444 -5.95210411 37.8156983 -7.7336731 42.10385132 C-16.01239416 62.0303526 -23.29039417 82.1709167 -29.97753906 102.68017578 C-30.89835257 105.4977325 -31.83245355 108.31023534 -32.7734375 111.12109375 C-35.08131051 118.11184804 -36.71649943 124.61865446 -37.0625 132 C-33.1025 131.01 -33.1025 131.01 -29.0625 130 C-29.0625 129.34 -29.0625 128.68 -29.0625 128 C-28.4025 128 -27.7425 128 -27.0625 128 C-26.84335937 126.9584375 -26.62421875 125.916875 -26.3984375 124.84375 C-23.33791727 110.81485324 -18.94379955 97.66646289 -12.0625 85 C-11.4025 85 -10.7425 85 -10.0625 85 C-9.9078125 84.1646875 -9.9078125 84.1646875 -9.75 83.3125 C-8.92071592 80.5230899 -7.71950944 78.3860936 -6.0625 76 C-5.4025 76 -4.7425 76 -4.0625 76 C-3.4025 74.35 -2.7425 72.7 -2.0625 71 C-1.4025 71 -0.7425 71 -0.0625 71 C0.185 70.38125 0.4325 69.7625 0.6875 69.125 C2.14378639 66.64931313 3.31562506 66.04874998 5.9375 65 C5.9375 64.34 5.9375 63.68 5.9375 63 C12.60459636 57.60446326 19.494486 53.61271054 27.9375 52 C28.77152344 51.83628906 29.60554687 51.67257813 30.46484375 51.50390625 C37.33464317 50.47714116 42.94083304 51.7172883 48.96875 55.16015625 C51.79385705 56.36531104 53.8044919 55.3421821 56.6484375 54.52734375 C60.67257525 53.6002813 64.85499875 53.35429827 68.9375 54 C71.234375 55.51953125 71.234375 55.51953125 72.9375 57 C72.3743711 64.09030483 70.36799589 70.35672969 68.0625 77.0625 C67.71058594 78.11244141 67.35867188 79.16238281 66.99609375 80.24414062 C65.59829809 84.37257428 64.18553773 88.42684881 62.45336914 92.42944336 C60.22280642 97.68342625 58.56413294 103.08838851 56.8659668 108.53369141 C56.25051181 110.49836618 55.62058259 112.45802957 54.99023438 114.41796875 C54.40145508 116.29935547 54.40145508 116.29935547 53.80078125 118.21875 C53.44282471 119.35248047 53.08486816 120.48621094 52.71606445 121.65429688 C51.88873411 125.20956029 51.79979553 128.36252354 51.9375 132 C55.06040635 131.51421457 57.93330359 131.0013988 60.9375 130 C60.9375 129.34 60.9375 128.68 60.9375 128 C61.5975 128 62.2575 128 62.9375 128 C62.9375 127.34 62.9375 126.68 62.9375 126 C63.5975 126 64.2575 126 64.9375 126 C65.185 125.319375 65.4325 124.63875 65.6875 123.9375 C66.9375 121 66.9375 121 68.75 118.125 C71.20920526 113.94435106 72.54582863 109.40306782 74.01538086 104.81176758 C75.28033435 100.88950173 76.67223737 97.09854882 78.3125 93.3125 C82.0083569 84.72819339 84.90790339 75.83559589 87.9375 67 C83.9775 67 80.0175 67 75.9375 67 C75.0196537 63.32861481 74.88852157 61.07236658 75.1875 57.375 C75.25453125 56.41335937 75.3215625 55.45171875 75.390625 54.4609375 C75.9375 52 75.9375 52 78.9375 50 C81.68091518 49.54229325 84.36492471 49.16908662 87.125 48.875 C87.87458984 48.78863281 88.62417969 48.70226562 89.39648438 48.61328125 C91.24267412 48.40161618 93.08999344 48.19984536 94.9375 48 C95.24042969 47.04480469 95.54335938 46.08960938 95.85546875 45.10546875 C102.90125497 23.22435666 102.90125497 23.22435666 107.9375 19 C115.33582395 15.37337061 122.65756836 13.28621279 130.9375 14 C132.9375 17 132.9375 17 132.80078125 19.234375 C131.82335339 23.69865543 130.75896778 27.77230686 128.80078125 31.9296875 C126.77131649 36.79672968 125.43389299 41.94872417 123.9375 47 C125.06929688 47.06058594 126.20109375 47.12117188 127.3671875 47.18359375 C128.84897145 47.26799917 130.3307416 47.35264717 131.8125 47.4375 C132.55886719 47.47681641 133.30523437 47.51613281 134.07421875 47.55664062 C139.7109375 47.88671875 139.7109375 47.88671875 141.9375 49 C142.58222081 54.15776651 141.16889128 57.07528684 138.375 61.234375 C136.51948818 63.51342756 134.59652035 64.77828795 131.9375 66 C131.2775 66.33 130.6175 66.66 129.9375 67 C127.56347499 67.07116382 125.18749323 67.08409085 122.8125 67.0625 C121.53117187 67.05347656 120.24984375 67.04445313 118.9296875 67.03515625 C117.94226563 67.02355469 116.95484375 67.01195312 115.9375 67 C115.82647949 67.81750732 115.71545898 68.63501465 115.60107422 69.47729492 C114.82864021 73.57790209 113.62776544 77.407223 112.3203125 81.36328125 C112.06248993 82.15470016 111.80466736 82.94611908 111.53903198 83.76152039 C110.71754611 86.27984974 109.8900963 88.79617295 109.0625 91.3125 C108.51393418 92.99140949 107.96575345 94.67044486 107.41796875 96.34960938 C106.40222311 99.4595058 105.38494809 102.568885 104.36376953 105.67700195 C104.13238785 106.38253708 103.90100616 107.0880722 103.66261292 107.81498718 C103.15274419 109.35139575 102.63397936 110.88486663 102.10874939 112.41609192 C101.70312523 113.60352242 101.70312523 113.60352242 101.28930664 114.81494141 C100.91957481 115.88453598 100.91957481 115.88453598 100.54237366 116.97573853 C99.64231667 119.98785629 99.41470273 122.93314805 99.25 126.0625 C99.18425781 127.18785156 99.11851562 128.31320312 99.05078125 129.47265625 C99.01339844 130.30667969 98.97601563 131.14070312 98.9375 132 C105.11609996 131.72539556 108.88822935 130.84706335 113.9375 127 C115.4225 126.505 115.4225 126.505 116.9375 126 C116.9375 125.34 116.9375 124.68 116.9375 124 C117.5975 124 118.2575 124 118.9375 124 C122.89058102 116.314177 125.64245028 108.15359803 128.25 99.93359375 C128.85670665 98.0475054 129.46347947 96.16143832 130.0703125 94.27539062 C131.00649271 91.35117821 131.94102449 88.42644969 132.87402344 85.5012207 C133.7867744 82.6439654 134.70562069 79.78872194 135.625 76.93359375 C135.89803955 76.07084335 136.1710791 75.20809296 136.45239258 74.31919861 C141.13533519 59.80216481 141.13533519 59.80216481 144.9375 56 C148.242695 54.3474025 151.30488468 53.87329098 154.9765625 53.8671875 C156.09417969 53.86525391 156.09417969 53.86525391 157.234375 53.86328125 C158.00265625 53.86714844 158.7709375 53.87101562 159.5625 53.875 C160.33851563 53.87113281 161.11453125 53.86726563 161.9140625 53.86328125 C167.68409734 53.87329867 167.68409734 53.87329867 169.9375 55 C170.18739934 60.89130504 169.5152716 65.38431929 167.55859375 70.91796875 C167.31092758 71.6494664 167.06326141 72.38096405 166.80809021 73.1346283 C166.00806278 75.48950866 165.19154258 77.83830166 164.375 80.1875 C163.82115926 81.81125387 163.2685933 83.43544309 162.71728516 85.06005859 C161.37511612 89.00843589 160.02126418 92.95266107 158.66241455 96.89532471 C157.03047421 101.63340662 155.41759364 106.37777325 153.8125 111.125 C153.54236084 111.90254639 153.27222168 112.68009277 152.99389648 113.48120117 C151.16981596 118.85391514 149.58908539 124.34892912 148.9375 130 C149.2675 130.66 149.5975 131.32 149.9375 132 C156.51589982 131.50585052 156.51589982 131.50585052 161.9375 128 C162.5975 128 163.2575 128 163.9375 128 C163.9375 127.34 163.9375 126.68 163.9375 126 C168.95657969 121.91470258 168.95657969 121.91470258 172.8125 122.25 C173.51375 122.4975 174.215 122.745 174.9375 123 C174.50494475 128.40694067 173.35528487 131.75366122 169.9375 136 C169.2775 136 168.6175 136 167.9375 136 C167.68355469 136.5878125 167.42960937 137.175625 167.16796875 137.78125 C163.36748702 144.63418213 155.26014383 149.31356008 148.1640625 152.08203125 C141.39193126 154.00872718 133.73673565 154.30309246 127.3125 151.3125 C123.21953281 147.32724247 120.8952482 144.6801106 119.9375 139 C119.46441406 139.44730469 118.99132812 139.89460937 118.50390625 140.35546875 C109.85049811 148.26667424 100.98035892 153.39756188 89 153.375 C88.29359375 153.37628906 87.5871875 153.37757813 86.859375 153.37890625 C81.39931663 153.26747649 78.16342475 152.3807398 73.9375 149 C73.9375 148.34 73.9375 147.68 73.9375 147 C73.2775 147 72.6175 147 71.9375 147 C70.6175 144.36 69.2975 141.72 67.9375 139 C67.009375 139.99 67.009375 139.99 66.0625 141 C63.9375 143 63.9375 143 61.9375 143 C61.9375 143.66 61.9375 144.32 61.9375 145 C60.14453125 146.4375 60.14453125 146.4375 57.75 148 C56.97269531 148.515625 56.19539062 149.03125 55.39453125 149.5625 C48.41452464 153.64619226 41.90255895 153.73091129 33.9375 153 C28.45539357 150.69174466 25.40365083 146.31422767 22.9375 141 C22.9375 140.01 22.9375 139.02 22.9375 138 C22.35742188 138.60328125 21.77734375 139.2065625 21.1796875 139.828125 C13.45671303 147.72951802 7.13599488 153.19930458 -4.4375 153.4375 C-10.59678587 153.33917617 -14.49216949 152.13238729 -19.0625 148 C-23.0625 143.7 -23.0625 143.7 -23.0625 141 C-24.0525 141 -25.0425 141 -26.0625 141 C-26.30226563 141.59554687 -26.54203125 142.19109375 -26.7890625 142.8046875 C-28.3249558 145.45245448 -29.86482637 146.4925061 -32.4375 148.125 C-33.20835937 148.62257813 -33.97921875 149.12015625 -34.7734375 149.6328125 C-35.52882813 150.08398438 -36.28421875 150.53515625 -37.0625 151 C-37.66320312 151.38414062 -38.26390625 151.76828125 -38.8828125 152.1640625 C-42.12455599 153.4073118 -45.10664402 153.26360573 -48.5625 153.25 C-49.8721875 153.25515625 -51.181875 153.2603125 -52.53125 153.265625 C-55.71492072 153.02614534 -57.42352529 152.69648375 -60.0625 151 C-60.0625 150.34 -60.0625 149.68 -60.0625 149 C-60.7225 149 -61.3825 149 -62.0625 149 C-63.45188077 147.03852126 -64.7885411 145.03833424 -66.0625 143 C-66.57039063 143.47050781 -67.07828125 143.94101562 -67.6015625 144.42578125 C-68.28992188 145.04839844 -68.97828125 145.67101562 -69.6875 146.3125 C-70.36039062 146.92738281 -71.03328125 147.54226563 -71.7265625 148.17578125 C-78.75693844 153.66605811 -85.41017225 153.93399979 -94.0625 153 C-98.09950091 151.56084977 -100.95076022 148.69554461 -103.0625 145 C-103.79510159 142.68652128 -104.473938 140.354248 -105.0625 138 C-105.743125 138.99 -105.743125 138.99 -106.4375 140 C-106.97375 140.66 -107.51 141.32 -108.0625 142 C-108.7225 142 -109.3825 142 -110.0625 142 C-110.3925 142.99 -110.7225 143.98 -111.0625 145 C-117.58673161 150.990708 -124.20962332 153.88176459 -133.0625 154 C-137.86349175 153.38162539 -142.16342995 151.92430254 -146.0625 149 C-146.0625 148.34 -146.0625 147.68 -146.0625 147 C-146.7225 147 -147.3825 147 -148.0625 147 C-154.8148757 135.67343431 -154.15126078 124.32287962 -151.10546875 111.58203125 C-148.13625651 101.38439969 -144.03409248 91.82068961 -138.0625 83 C-137.45535156 82.09636719 -136.84820312 81.19273437 -136.22265625 80.26171875 C-127.39291362 67.62032485 -116.0388294 56.3023179 -100.609375 52.39453125 C-93.89322022 51.35414531 -87.27931806 50.97184249 -81.0625 54 C-80.4025 54.66 -79.7425 55.32 -79.0625 56 C-76.87218174 55.79393473 -76.87218174 55.79393473 -74.4375 55.125 C-67.48756382 53.58279514 -61.83809137 53.28976345 -55.0625 56 C-53.54533059 60.72999875 -54.7403653 63.4148146 -56.6875 67.875 C-57.25241294 69.20545997 -57.81350986 70.53754564 -58.37109375 71.87109375 C-58.65581543 72.55155762 -58.94053711 73.23202148 -59.23388672 73.93310547 C-60.55177025 77.22043663 -61.65797026 80.56962929 -62.75 83.9375 C-65.23550352 91.56760129 -65.23550352 91.56760129 -66.5625 95 C-73.63696323 112.55340347 -73.63696323 112.55340347 -76.0625 131 C-72.62456661 130.81870185 -72.62456661 130.81870185 -69.0625 130 C-67.87064239 128.21142233 -67.87064239 128.21142233 -67.0625 126 C-66.60230469 124.96746094 -66.60230469 124.96746094 -66.1328125 123.9140625 C-62.4070195 114.89210093 -59.90943273 105.5488246 -57.61352539 96.0769043 C-55.86390013 88.86243252 -53.7663552 81.87836372 -51.34765625 74.8515625 C-49.95290576 70.75084801 -48.75627928 66.60030278 -47.5625 62.4375 C-45.36115681 54.84261062 -42.88218471 47.39039002 -40.0625 40 C-39.7644043 39.21657227 -39.46630859 38.43314453 -39.15917969 37.62597656 C-21.98692287 -7.17940339 -21.98692287 -7.17940339 0 0 Z M-102.0625 73 C-102.0625 73.66 -102.0625 74.32 -102.0625 75 C-102.7225 75 -103.3825 75 -104.0625 75 C-104.0625 75.66 -104.0625 76.32 -104.0625 77 C-104.7225 77 -105.3825 77 -106.0625 77 C-106.0625 77.66 -106.0625 78.32 -106.0625 79 C-106.7225 79 -107.3825 79 -108.0625 79 C-117.48182425 94.9291239 -127.09715377 111.82039608 -125.0625 131 C-124.4025 131.66 -123.7425 132.32 -123.0625 133 C-118.09655555 133 -115.45440238 131.07162749 -111.87109375 127.9609375 C-107.28010938 122.98323954 -104.01984882 117.43122154 -101.1875 111.3125 C-100.85089355 110.5898999 -100.51428711 109.8672998 -100.16748047 109.12280273 C-97.5541354 103.37038346 -95.29489158 97.51736728 -93.1875 91.5625 C-92.90148926 90.75917236 -92.61547852 89.95584473 -92.32080078 89.12817383 C-89.43064185 80.72922672 -89.43064185 80.72922672 -88.0625 72 C-89.67948383 68.80849191 -89.67948383 68.80849191 -92.25 68.5625 C-96.17786832 69.17350174 -98.70156174 70.891176 -102.0625 73 Z M22.9375 76 C22.40125 76.48210937 21.865 76.96421875 21.3125 77.4609375 C9.99350914 89.08750963 1.7843424 111.1335113 1.671875 127.01953125 C1.83264829 129.31849127 1.83264829 129.31849127 3.9375 132 C8.05345697 132.86147937 9.70629288 132.14832155 13.25 129.875 C25.64264221 118.25174578 31.33937017 100.54671246 36.9375 85 C37.32292969 83.96230469 37.70835937 82.92460937 38.10546875 81.85546875 C38.95244824 78.94869875 39.14396583 76.63923558 39.0625 73.625 C39.04445313 72.75101562 39.02640625 71.87703125 39.0078125 70.9765625 C38.98460937 70.32429688 38.96140625 69.67203125 38.9375 69 C31.6803562 67.9191488 28.12714663 71.21102462 22.9375 76 Z " fill="#D21A1C" transform="translate(291.0625,144)"/>
<path d="M0 0 C4.58727711 3.94992233 6.92401875 8.16286228 7.41015625 14.28125 C7.71238207 22.95597644 7.26850111 29.49514994 2.13671875 36.83984375 C1.69070312 37.50628906 1.2446875 38.17273438 0.78515625 38.859375 C-2.8373382 43.6657573 -7.11689667 46.15209443 -12.86328125 47.83984375 C-18.02142101 48.45182643 -21.59136881 47.89120978 -25.86328125 44.83984375 C-27.12835012 40.97154426 -27.03788657 39.24995217 -25.4296875 35.47265625 C-24.7720185 34.29756135 -24.10365554 33.12839993 -23.42578125 31.96484375 C-20.58376929 26.67600673 -18.54737112 22.87109853 -19.86328125 16.83984375 C-21.56939213 13.63330799 -21.56939213 13.63330799 -24.86328125 11.83984375 C-32.04253397 10.55915373 -38.77243746 12.07915162 -44.7734375 16.12890625 C-51.12807012 21.17483534 -54.92893572 27.72271697 -55.86328125 35.83984375 C-55.86328125 48.15607295 -50.19727723 56.54258009 -41.73828125 65.01171875 C-40.09706333 66.64032871 -38.4472469 68.25683086 -36.77563477 69.85424805 C-35.43685354 71.14784194 -34.14554325 72.49020509 -32.86328125 73.83984375 C-32.86328125 74.49984375 -32.86328125 75.15984375 -32.86328125 75.83984375 C-32.20328125 75.83984375 -31.54328125 75.83984375 -30.86328125 75.83984375 C-22.72921028 83.97391472 -19.94600781 96.26579011 -19.61328125 107.40234375 C-20.08054175 123.81486869 -27.54587637 136.77989856 -38.87109375 148.24609375 C-41.0892381 150.02060923 -43.19056898 150.91502981 -45.86328125 151.83984375 C-45.86328125 152.49984375 -45.86328125 153.15984375 -45.86328125 153.83984375 C-54.97128298 159.01484473 -63.71314184 161.610928 -73.86328125 163.83984375 C-74.83189087 164.10462524 -74.83189087 164.10462524 -75.82006836 164.37475586 C-89.85236033 167.56886701 -104.2676361 163.96661435 -116.86328125 157.83984375 C-116.86328125 157.17984375 -116.86328125 156.51984375 -116.86328125 155.83984375 C-117.72953125 155.49953125 -117.72953125 155.49953125 -118.61328125 155.15234375 C-124.08129194 151.96267085 -126.17870701 146.65434192 -127.86328125 140.83984375 C-130.16811336 130.96199185 -126.96824596 121.89943106 -121.8515625 113.38671875 C-121.52542969 112.87625 -121.19929688 112.36578125 -120.86328125 111.83984375 C-120.20328125 111.83984375 -119.54328125 111.83984375 -118.86328125 111.83984375 C-118.6415625 111.25460937 -118.41984375 110.669375 -118.19140625 110.06640625 C-116.45507717 107.15550161 -114.48370406 105.99513331 -111.61328125 104.21484375 C-110.21335937 103.32925781 -110.21335937 103.32925781 -108.78515625 102.42578125 C-103.60089715 99.61186522 -99.12898812 98.53382158 -93.23828125 98.46484375 C-92.13226563 98.43648438 -91.02625 98.408125 -89.88671875 98.37890625 C-86.86328125 98.83984375 -86.86328125 98.83984375 -84.46484375 100.55078125 C-82.86328125 102.83984375 -82.86328125 102.83984375 -82.3671875 105.390625 C-82.86328125 107.83984375 -82.86328125 107.83984375 -84.578125 109.5703125 C-85.67833984 110.29154297 -85.67833984 110.29154297 -86.80078125 111.02734375 C-89.86912338 112.95147319 -89.86912338 112.95147319 -91.86328125 115.83984375 C-92.52328125 115.83984375 -93.18328125 115.83984375 -93.86328125 115.83984375 C-94.13140625 116.52046875 -94.39953125 117.20109375 -94.67578125 117.90234375 C-95.86328125 120.83984375 -95.86328125 120.83984375 -97.55078125 124.02734375 C-99.57122981 128.5935575 -98.663418 133.04866345 -97.86328125 137.83984375 C-97.20328125 137.83984375 -96.54328125 137.83984375 -95.86328125 137.83984375 C-95.86328125 138.49984375 -95.86328125 139.15984375 -95.86328125 139.83984375 C-94.89390625 140.14921875 -93.92453125 140.45859375 -92.92578125 140.77734375 C-89.86328125 141.83984375 -89.86328125 141.83984375 -88.86328125 142.83984375 C-81.45987592 143.39778154 -75.46756955 143.28555939 -68.86328125 139.83984375 C-67.87328125 139.83984375 -66.88328125 139.83984375 -65.86328125 139.83984375 C-65.86328125 139.17984375 -65.86328125 138.51984375 -65.86328125 137.83984375 C-64.65671875 137.43765625 -64.65671875 137.43765625 -63.42578125 137.02734375 C-62.58015625 136.63546875 -61.73453125 136.24359375 -60.86328125 135.83984375 C-60.53328125 134.84984375 -60.20328125 133.85984375 -59.86328125 132.83984375 C-59.20328125 132.83984375 -58.54328125 132.83984375 -57.86328125 132.83984375 C-57.18203419 130.84476308 -56.51900916 128.84345682 -55.86328125 126.83984375 C-55.47140625 125.76734375 -55.07953125 124.69484375 -54.67578125 123.58984375 C-52.99369349 115.8263618 -54.44560335 109.2550333 -58.234375 102.3359375 C-62.78819591 95.35778027 -68.80862648 89.83876264 -74.98828125 84.33984375 C-84.79071117 75.5501315 -91.51036243 64.89512327 -93.13671875 51.60546875 C-93.67809094 38.19609603 -88.56309559 24.9800247 -79.86328125 14.83984375 C-79.20328125 14.83984375 -78.54328125 14.83984375 -77.86328125 14.83984375 C-77.86328125 14.17984375 -77.86328125 13.51984375 -77.86328125 12.83984375 C-77.20328125 12.83984375 -76.54328125 12.83984375 -75.86328125 12.83984375 C-75.86328125 12.17984375 -75.86328125 11.51984375 -75.86328125 10.83984375 C-55.03129196 -5.91334606 -23.74618454 -17.63256717 0 0 Z " fill="#D21A1C" transform="translate(157.86328125,145.16015625)"/>
<path d="M0 0 C1.1643029 0.05790962 1.1643029 0.05790962 2.35212708 0.11698914 C6.9070393 0.36287474 11.41567009 0.78356703 15.94630432 1.31126404 C42.66099281 4.28591495 71.78314767 4.32611343 98.33203125 -0.16015625 C100.95703125 -0.46484375 100.95703125 -0.46484375 102.95703125 0.53515625 C102.95703125 3.27631815 102.47601034 4.99139445 100.56640625 6.9921875 C67.80331069 33.07876989 16.3427492 27.19337589 -22.79296875 26.09765625 C-23.87091705 26.06832001 -23.87091705 26.06832001 -24.97064209 26.03839111 C-31.88319014 25.84499004 -38.77000366 25.58242068 -45.6640625 25.01171875 C-55.54799239 24.26408277 -65.44889498 24.33686423 -75.35546875 24.34765625 C-76.37764496 24.3482605 -77.39982117 24.34886475 -78.45297241 24.3494873 C-117.12492438 24.41156046 -161.62084328 26.6130869 -196.2265625 45.7421875 C-201.10985299 48.43608849 -204.43846719 49.36204992 -210.04296875 48.53515625 C-213.24616694 46.02830549 -215.77869429 43.44291367 -217.04296875 39.53515625 C-217.53082128 34.26634891 -216.98505521 30.94828594 -214.04296875 26.53515625 C-194.24767505 3.67444961 -146.71059271 2.49173905 -118.66650391 0.35400391 C-112.98321762 -0.03758193 -107.29603092 -0.32780236 -101.60546875 -0.58984375 C-100.71478699 -0.63153687 -99.82410522 -0.67322998 -98.90643311 -0.71618652 C-65.89851079 -2.22345068 -32.98984969 -1.68760185 0 0 Z " fill="#D11B1D" transform="translate(304.04296875,312.46484375)"/>
<path d="M0 0 C3.61109047 2.69121269 5.21919248 5.48487743 6.35546875 9.8203125 C7.08554565 15.08162756 6.16950151 19.31219431 3.73046875 24.0078125 C0.56900906 27.86084149 -2.58784356 30.17127578 -7.58203125 30.7578125 C-11.63441342 31.11963234 -14.5478608 30.82537249 -18.26953125 29.0078125 C-21.56456688 26.17042071 -24.04666327 23.57431722 -24.67578125 19.15234375 C-24.87039272 12.23552764 -24.51779397 7.85614252 -19.97265625 2.49609375 C-14.58605265 -2.2110071 -6.51647388 -2.84885433 0 0 Z " fill="#D21D1F" transform="translate(466.26953125,158.9921875)"/>
<path d="M0 0 C0 2.125 0 2.125 -1 5 C-5.06565997 8.96862752 -9.46312153 11.61578038 -15 13 C-15.66 12.01 -16.32 11.02 -17 10 C-17.825 9.505 -18.65 9.01 -19.5 8.5 C-22 7 -22 7 -24 4 C-26.42521494 3.41810734 -26.42521494 3.41810734 -29.125 3.3125 C-30.03507812 3.24675781 -30.94515625 3.18101562 -31.8828125 3.11328125 C-32.58148438 3.07589844 -33.28015625 3.03851563 -34 3 C-34 2.67 -34 2.34 -34 2 C-32.83984375 1.95101563 -31.6796875 1.90203125 -30.484375 1.8515625 C-22.32404241 1.47180866 -14.40494507 0.97310823 -6.3828125 -0.6953125 C-3.92752642 -1.00926711 -2.3321228 -0.77014288 0 0 Z " fill="#CE2C2E" transform="translate(407,313)"/>
<path d="M0 0 C0.70125 0.2475 1.4025 0.495 2.125 0.75 C1.69244475 6.15694067 0.54278487 9.50366122 -2.875 13.75 C-3.535 13.75 -4.195 13.75 -4.875 13.75 C-5.143125 14.36875 -5.41125 14.9875 -5.6875 15.625 C-6.875 17.75 -6.875 17.75 -9.875 19.75 C-10.205 17.77 -10.535 15.79 -10.875 13.75 C-9.885 13.42 -8.895 13.09 -7.875 12.75 C-7.875 12.09 -7.875 11.43 -7.875 10.75 C-9.855 10.09 -11.835 9.43 -13.875 8.75 C-12.5 7.25 -12.5 7.25 -10.875 5.75 C-10.215 5.75 -9.555 5.75 -8.875 5.75 C-8.875 5.09 -8.875 4.43 -8.875 3.75 C-3.85592031 -0.33529742 -3.85592031 -0.33529742 0 0 Z " fill="#C12C2B" transform="translate(463.875,266.25)"/>
<path d="M0 0 C-0.5 1.875 -0.5 1.875 -2 4 C-3.98893011 4.71846815 -5.95746899 5.14206255 -8.02734375 5.5703125 C-10.26448747 6.05761113 -12.06975891 6.7646457 -14 8 C-14.33 8.66 -14.66 9.32 -15 10 C-16.6396875 10.37125 -16.6396875 10.37125 -18.3125 10.75 C-22.82326026 12.27907128 -23.71506891 13.93790029 -26 18 C-26.66 18.66 -27.32 19.32 -28 20 C-28.02253443 22.44963177 -28.02253443 22.44963177 -27.625 25.125 C-27.51414062 26.03507812 -27.40328125 26.94515625 -27.2890625 27.8828125 C-27.19367188 28.58148438 -27.09828125 29.28015625 -27 30 C-27.99 30 -28.98 30 -30 30 C-31.52690413 25.41928762 -31.53102253 21.59306759 -30 17 C-23.84580074 7.76870111 -14.13000184 3.35051074 -3.703125 0.3359375 C-2 0 -2 0 0 0 Z " fill="#C34C4D" transform="translate(118,325)"/>
<path d="M0 0 C0.99 0.33 1.98 0.66 3 1 C2.8125 2.875 2.8125 2.875 2 5 C-0.5625 6.25 -0.5625 6.25 -3 7 C-3 7.66 -3 8.32 -3 9 C-2.34 9 -1.68 9 -1 9 C-0.87381703 16.44479495 -0.87381703 16.44479495 -1.625 19.75 C-2.08442433 22.50654601 -1.4631818 23.67612302 0 26 C-0.66 26.33 -1.32 26.66 -2 27 C-6.43417351 22.15012273 -6.70195699 17.6787932 -6.5390625 11.21484375 C-5.72826446 6.37943227 -3.43688205 3.38573797 0 0 Z " fill="#C42226" transform="translate(448,160)"/>
<path d="M0 0 C2.125 0.375 2.125 0.375 4 1 C3.67 1.33 3.34 1.66 3 2 C3.95261719 1.96519531 4.90523438 1.93039063 5.88671875 1.89453125 C7.14097656 1.86746094 8.39523438 1.84039062 9.6875 1.8125 C11.54955078 1.76029297 11.54955078 1.76029297 13.44921875 1.70703125 C17.18564321 2.0153171 19.00629483 2.81911727 22 5 C21.34 5.66 20.68 6.32 20 7 C19.97792512 9.67813399 19.97792512 9.67813399 20.375 12.625 C20.48585937 13.62789062 20.59671875 14.63078125 20.7109375 15.6640625 C20.80632812 16.43492187 20.90171875 17.20578125 21 18 C21.66 18 22.32 18 23 18 C22.67 18.99 22.34 19.98 22 21 C20.68 20.67 19.36 20.34 18 20 C18.05800781 19.33613281 18.11601562 18.67226562 18.17578125 17.98828125 C18.40076284 13.58507022 18.43848884 10.78301578 16.25 6.875 C11.31832016 4.02980009 6.56272344 4.60076148 1 5 C1 4.34 1 3.68 1 3 C0.01 2.67 -0.98 2.34 -2 2 C-1.34 1.34 -0.68 0.68 0 0 Z " fill="#C52729" transform="translate(120,152)"/>
<path d="M0 0 C0.33 0 0.66 0 1 0 C1 1.98 1 3.96 1 6 C1.66 6 2.32 6 3 6 C2.34 7.32 1.68 8.64 1 10 C0.67 10 0.34 10 0 10 C0 6.7 0 3.4 0 0 Z M-4 10 C-1.69 10.33 0.62 10.66 3 11 C3 11.66 3 12.32 3 13 C2.34 13 1.68 13 1 13 C0.566875 14.2065625 0.566875 14.2065625 0.125 15.4375 C-1 18 -1 18 -3 19 C-3.99 20.485 -3.99 20.485 -5 22 C-5 21.01 -5 20.02 -5 19 C-5.66 19 -6.32 19 -7 19 C-7 19.66 -7 20.32 -7 21 C-7.99 21 -8.98 21 -10 21 C-10.33 19.68 -10.66 18.36 -11 17 C-10.360625 16.71125 -9.72125 16.4225 -9.0625 16.125 C-6.84793921 15.17176549 -6.84793921 15.17176549 -6 13 C-5.34 13 -4.68 13 -4 13 C-4 12.01 -4 11.02 -4 10 Z " fill="#CD1615" transform="translate(267,263)"/>
<path d="M0 0 C1.32 0.66 2.64 1.32 4 2 C4 2.66 4 3.32 4 4 C7.3 4.33 10.6 4.66 14 5 C14.33 3.68 14.66 2.36 15 1 C18.01031744 0.06576355 18.86650268 -0.04449911 22 1 C21 4 21 4 18.3828125 5.66796875 C14.62744205 7.14670007 11.89618641 7.36895294 7.875 7.3125 C6.67617187 7.30863281 5.47734375 7.30476563 4.2421875 7.30078125 C1.23563262 7.02185989 -0.47317301 6.57769546 -3 5 C-3 4.34 -3 3.68 -3 3 C-2.01 2.67 -1.02 2.34 0 2 C0 1.34 0 0.68 0 0 Z " fill="#BE3233" transform="translate(196,290)"/>
<path d="M0 0 C1.11761719 -0.00193359 1.11761719 -0.00193359 2.2578125 -0.00390625 C3.02609375 -0.00003906 3.794375 0.00382813 4.5859375 0.0078125 C5.36195313 0.00394531 6.13796875 0.00007812 6.9375 -0.00390625 C12.70753484 0.00611117 12.70753484 0.00611117 14.9609375 1.1328125 C14.9609375 3.7728125 14.9609375 6.4128125 14.9609375 9.1328125 C14.6309375 9.1328125 14.3009375 9.1328125 13.9609375 9.1328125 C13.6309375 7.1528125 13.3009375 5.1728125 12.9609375 3.1328125 C10.23150213 3.07864509 7.50315186 3.03906025 4.7734375 3.0078125 C4.00451172 2.99105469 3.23558594 2.97429687 2.44335938 2.95703125 C-1.79686004 2.92063452 -5.23958199 2.99560471 -9.0390625 5.1328125 C-9.92599553 7.17386889 -9.92599553 7.17386889 -10.0390625 9.1328125 C-10.6990625 9.1328125 -11.3590625 9.1328125 -12.0390625 9.1328125 C-12.3690625 10.4528125 -12.6990625 11.7728125 -13.0390625 13.1328125 C-13.6990625 13.1328125 -14.3590625 13.1328125 -15.0390625 13.1328125 C-12.75221217 4.868967 -12.75221217 4.868967 -10.1015625 2.1328125 C-6.7582985 0.51183601 -3.69605871 0.00614401 0 0 Z " fill="#B53F42" transform="translate(446.0390625,197.8671875)"/>
<path d="M0 0 C2 3 2 3 1.7578125 5.48046875 C1.54898437 6.37378906 1.34015625 7.26710937 1.125 8.1875 C0.92132813 9.08855469 0.71765625 9.98960937 0.5078125 10.91796875 C0.34023438 11.60503906 0.17265625 12.29210937 0 13 C-0.33 13 -0.66 13 -1 13 C-1 9.7 -1 6.4 -1 3 C-4.43793339 3.18129815 -4.43793339 3.18129815 -8 4 C-9.39238047 5.86747263 -9.39238047 5.86747263 -10 8 C-10.66 8.66 -11.32 9.32 -12 10 C-12.433125 8.2984375 -12.433125 8.2984375 -12.875 6.5625 C-13.24625 5.386875 -13.6175 4.21125 -14 3 C-14.66 2.67 -15.32 2.34 -16 2 C-10.46888346 0.41968099 -5.76059245 -0.4966028 0 0 Z " fill="#CD2528" transform="translate(422,158)"/>
<path d="M0 0 C2.375 1.85546875 2.375 1.85546875 4 4 C4.25 6.75 4.25 6.75 4 9 C3.01 9.495 3.01 9.495 2 10 C1.87625 9.030625 1.7525 8.06125 1.625 7.0625 C1.41875 6.051875 1.2125 5.04125 1 4 C-3.17066808 1.91466596 -8.45875099 2.54050437 -13 3 C-16.27310553 4.90356987 -16.27310553 4.90356987 -19 7 C-22.875 7.25 -22.875 7.25 -26 7 C-18.59742875 0.29141981 -9.80017649 -1.64632595 0 0 Z " fill="#C05357" transform="translate(71,244)"/>
<path d="M0 0 C0.99 0 1.98 0 3 0 C3 0.66 3 1.32 3 2 C3.66 2 4.32 2 5 2 C6.34443067 7.95279706 5.51775279 11.55974615 3.1875 17.125 C2.91357422 17.81464844 2.63964844 18.50429687 2.35742188 19.21484375 C1.5861374 21.14952855 0.79533673 23.07510757 0 25 C-0.66779163 26.66621624 -1.33501152 28.33266304 -2 30 C-2.33 30 -2.66 30 -3 30 C-3.14167457 24.19134264 -2.56945099 18.60518209 -1 13 C0.32 13 1.64 13 3 13 C3.08096803 11.54257537 3.13917774 10.08387193 3.1875 8.625 C3.23970703 7.40683594 3.23970703 7.40683594 3.29296875 6.1640625 C3.19628906 5.44992188 3.09960938 4.73578125 3 4 C2.01 3.34 1.02 2.68 0 2 C0 1.34 0 0.68 0 0 Z " fill="#C4292A" transform="translate(290,145)"/>
<path d="M0 0 C-0.15240609 2.66710654 -0.49364919 4.4505871 -2.33203125 6.4453125 C-6.50625 10 -6.50625 10 -9 10 C-9.5534764 7.92446352 -10 6.15634036 -10 4 C-10.66 3.67 -11.32 3.34 -12 3 C-11.67 2.01 -11.34 1.02 -11 0 C-3.57142857 -1.28571429 -3.57142857 -1.28571429 0 0 Z " fill="#C22931" transform="translate(407,313)"/>
<path d="M0 0 C0 0.66 0 1.32 0 2 C-3 4 -3 4 -6 4 C-6.33 4.99 -6.66 5.98 -7 7 C-8.65 7.33 -10.3 7.66 -12 8 C-12.33 9.98 -12.66 11.96 -13 14 C-15.78823655 15.0326802 -16.8677274 15.04509293 -19.75 14.0625 C-20.4925 13.711875 -21.235 13.36125 -22 13 C-17.0983766 7.45903441 -7.79886648 0 0 0 Z " fill="#C9292A" transform="translate(107,142)"/>
<path d="M0 0 C2 2 2 2 2 6 C1.01 6.495 1.01 6.495 0 7 C0.33 10.3 0.66 13.6 1 17 C0.01 17.33 -0.98 17.66 -2 18 C-2.185625 19.0828125 -2.185625 19.0828125 -2.375 20.1875 C-2.9904931 22.95721894 -3.88444374 25.3970354 -5 28 C-5.66 28 -6.32 28 -7 28 C-5.09445726 18.50115817 -2.77870808 9.28116709 0 0 Z " fill="#C32F31" transform="translate(235,234)"/>
<path d="M0 0 C0.99 0.495 0.99 0.495 2 1 C2.40729228 3.32156597 2.74438677 5.6568787 3 8 C4.3921875 8.1546875 4.3921875 8.1546875 5.8125 8.3125 C9 9 9 9 10.28125 10.5 C12.88451757 12.77194261 15.29798315 12.51970214 18.6875 12.6875 C19.86699219 12.75324219 21.04648437 12.81898438 22.26171875 12.88671875 C23.16535156 12.92410156 24.06898438 12.96148437 25 13 C24.67 13.66 24.34 14.32 24 15 C11.34104046 15.62427746 11.34104046 15.62427746 6.375 13.3125 C0.09003215 7.19292605 0.09003215 7.19292605 -0.25 2.6875 C-0.1675 1.800625 -0.085 0.91375 0 0 Z " fill="#BE3D3F" transform="translate(412,282)"/>
<path d="M0 0 C2.41445371 3.02939501 3.46292236 5.13304097 4 9 C1.3333581 10.33332095 -0.16680303 9.67102033 -3 9 C-2.67 11.31 -2.34 13.62 -2 16 C-1.01 16.33 -0.02 16.66 1 17 C-0.65 17.33 -2.3 17.66 -4 18 C-6 15 -6 15 -5.9375 12.375 C-4.67097415 7.81550694 -2.43032506 4.03559512 0 0 Z " fill="#CA3637" transform="translate(137,173)"/>
<path d="M0 0 C0.66 0 1.32 0 2 0 C-0.29059579 10.2474022 -3.59403351 20.07970924 -7 30 C-9 28 -9 28 -9.125 25.375 C-9.08375 24.59125 -9.0425 23.8075 -9 23 C-8.34 22.67 -7.68 22.34 -7 22 C-6.38129069 20.1181104 -6.38129069 20.1181104 -6 17.875 C-5.18651311 13.83984678 -4.17484244 9.9441139 -3 6 C-2.34 6 -1.68 6 -1 6 C-0.67 4.02 -0.34 2.04 0 0 Z " fill="#C24A4C" transform="translate(458,207)"/>
<path d="M0 0 C-4.09732073 4.09732073 -11.92308804 3.12825557 -17.47070312 3.13671875 C-18.32599609 3.13285156 -19.18128906 3.12898438 -20.0625 3.125 C-20.92166016 3.12886719 -21.78082031 3.13273437 -22.66601562 3.13671875 C-27.55080978 3.12925535 -32.18422282 2.82332147 -37 2 C-37 1.67 -37 1.34 -37 1 C-24.65822514 0.36405271 -12.36008863 -0.17327227 0 0 Z " fill="#BD4046" transform="translate(220,312)"/>
<path d="M0 0 C0.82757813 -0.02578125 1.65515625 -0.0515625 2.5078125 -0.078125 C5.37003917 0.31861929 6.72738203 1.36959717 8.875 3.25 C8.545 5.89 8.215 8.53 7.875 11.25 C5.875 9.25 5.875 9.25 5.75 6.125 C5.79125 5.17625 5.8325 4.2275 5.875 3.25 C4.98296875 3.27320313 4.0909375 3.29640625 3.171875 3.3203125 C2.00140625 3.33835938 0.8309375 3.35640625 -0.375 3.375 C-2.11523438 3.40980469 -2.11523438 3.40980469 -3.890625 3.4453125 C-6.95286046 3.2603949 -8.56702751 2.85823023 -11.125 1.25 C-7.41538172 0.46902773 -3.78129479 0.11187263 0 0 Z " fill="#C24D4E" transform="translate(355.125,197.75)"/>
<path d="M0 0 C1.9375 0.375 1.9375 0.375 4 1 C4.33 1.66 4.66 2.32 5 3 C4.40832031 3.35191406 3.81664063 3.70382813 3.20703125 4.06640625 C-2.23492856 7.46652144 -5.6172244 10.54391033 -9 16 C-9.66 15.67 -10.32 15.34 -11 15 C-10.67 12.36 -10.34 9.72 -10 7 C-8.02 7 -6.04 7 -4 7 C-4 6.01 -4 5.02 -4 4 C-2.68 4 -1.36 4 0 4 C0 2.68 0 1.36 0 0 Z " fill="#C42E2E" transform="translate(114,155)"/>
<path d="M0 0 C0.75796875 0.00773438 1.5159375 0.01546875 2.296875 0.0234375 C3.03164062 0.01570312 3.76640625 0.00796875 4.5234375 0 C9.7085081 0.01825729 14.18693538 0.84916904 19.171875 2.2734375 C18.181875 3.7584375 18.181875 3.7584375 17.171875 5.2734375 C14.046875 5.4609375 14.046875 5.4609375 11.171875 5.2734375 C11.171875 4.6134375 11.171875 3.9534375 11.171875 3.2734375 C4.901875 2.9434375 -1.368125 2.6134375 -7.828125 2.2734375 C-5.25507749 -0.29961001 -3.51037947 0.01249245 0 0 Z " fill="#B33F3F" transform="translate(128.828125,136.7265625)"/>
<path d="M0 0 C0.66 0.33 1.32 0.66 2 1 C1.21172254 2.29373782 0.41924884 3.58491951 -0.375 4.875 C-0.81585938 5.59429687 -1.25671875 6.31359375 -1.7109375 7.0546875 C-3 9 -3 9 -5 11 C-5.02253443 13.44963177 -5.02253443 13.44963177 -4.625 16.125 C-4.51414062 17.03507812 -4.40328125 17.94515625 -4.2890625 18.8828125 C-4.19367188 19.58148438 -4.09828125 20.28015625 -4 21 C-4.99 21 -5.98 21 -7 21 C-8.55933311 16.32200067 -8.57094713 12.50249244 -6.8125 7.875 C-4.86319427 4.7829978 -2.68519009 2.46747197 0 0 Z " fill="#C5484B" transform="translate(95,334)"/>
<path d="M0 0 C1.32 0.33 2.64 0.66 4 1 C3 4 3 4 1.1796875 5.16796875 C-3.83162438 7.38483722 -7.51987651 8.46639349 -13 8 C-13 7.34 -13 6.68 -13 6 C-11.35 5.67 -9.7 5.34 -8 5 C-7.67 4.01 -7.34 3.02 -7 2 C-4.525 2.99 -4.525 2.99 -2 4 C-2 3.34 -2 2.68 -2 2 C-1.34 1.67 -0.68 1.34 0 1 C0 0.67 0 0.34 0 0 Z " fill="#C34445" transform="translate(151,185)"/>
<path d="M0 0 C0.66 0.33 1.32 0.66 2 1 C2 1.99 2 2.98 2 4 C1.34 4 0.68 4 0 4 C0.12375 5.0828125 0.12375 5.0828125 0.25 6.1875 C-0.08397143 9.94467856 -1.35835804 11.35835804 -4 14 C-6.75 15.3125 -6.75 15.3125 -9 16 C-6.73900044 10.09627893 -3.62158745 5.16867335 0 0 Z " fill="#C54042" transform="translate(78,160)"/>
<path d="M0 0 C2.20826378 -0.02722517 4.41662638 -0.04649729 6.625 -0.0625 C7.85476563 -0.07410156 9.08453125 -0.08570313 10.3515625 -0.09765625 C13.67723791 -0.00863924 16.74047588 0.36313913 20 1 C20 1.33 20 1.66 20 2 C8.44207317 5.39939024 8.44207317 5.39939024 3 4 C3 3.34 3 2.68 3 2 C2.01 1.34 1.02 0.68 0 0 Z " fill="#BD1517" transform="translate(301,314)"/>
<path d="M0 0 C0.33 0 0.66 0 1 0 C0.88487847 1.72985242 0.75744323 3.45888751 0.625 5.1875 C0.55539062 6.15042969 0.48578125 7.11335937 0.4140625 8.10546875 C-0.00968006 11.06766911 -0.61501678 13.34780423 -2 16 C-2.99 16.33 -3.98 16.66 -5 17 C-5.33 17.99 -5.66 18.98 -6 20 C-7.4146816 15.75595521 -5.6963296 12.84871797 -4.125 8.875 C-3.84269531 8.13378906 -3.56039063 7.39257812 -3.26953125 6.62890625 C-1.15992374 1.15992374 -1.15992374 1.15992374 0 0 Z " fill="#C54348" transform="translate(325,235)"/>
<path d="M0 0 C0 0.33 0 0.66 0 1 C-7.92 1.33 -15.84 1.66 -24 2 C-16.53474766 -2.9768349 -8.21880412 -3.28752165 0 0 Z " fill="#C64D50" transform="translate(236,200)"/>
<path d="M0 0 C0.34833144 4.87664009 -0.58314288 7.77050005 -3 12 C-3.98120464 8.94736336 -3.98120464 7.05263664 -3 4 C-4.98 4 -6.96 4 -9 4 C-9 3.34 -9 2.68 -9 2 C-9.66 1.67 -10.32 1.34 -11 1 C-3.375 -1.125 -3.375 -1.125 0 0 Z " fill="#C13B3C" transform="translate(433,193)"/>
<path d="M0 0 C0.33 0 0.66 0 1 0 C1.66 8.25 2.32 16.5 3 25 C2.01 25 1.02 25 0 25 C-2.40802782 17.29813325 -1.49565341 7.8521804 0 0 Z " fill="#C65354" transform="translate(139,259)"/>
<path d="M0 0 C2.625 0.375 2.625 0.375 5 1 C4.40049704 4.68266103 3.75241109 8.34543185 3 12 C2.54625 11.34 2.0925 10.68 1.625 10 C1.08875 9.34 0.5525 8.68 0 8 C-0.66 8 -1.32 8 -2 8 C-2.125 5.125 -2.125 5.125 -2 2 C-1.34 1.34 -0.68 0.68 0 0 Z " fill="#CF3737" transform="translate(212,258)"/>
<path d="M0 0 C1.32 0 2.64 0 4 0 C3.09212446 3.96813015 1.8242793 7.82123166 0.5625 11.6875 C0.34529297 12.37650391 0.12808594 13.06550781 -0.09570312 13.77539062 C-0.6725048 15.53697413 -1.33068159 17.27144873 -2 19 C-2.66 19.33 -3.32 19.66 -4 20 C-4 15.71 -4 11.42 -4 7 C-2.68 6.67 -1.36 6.34 0 6 C0 4.02 0 2.04 0 0 Z " fill="#C64845" transform="translate(232,205)"/>
<path d="M0 0 C0.5465625 0.22945312 1.093125 0.45890625 1.65625 0.6953125 C0.99625 0.6953125 0.33625 0.6953125 -0.34375 0.6953125 C-0.34375 1.3553125 -0.34375 2.0153125 -0.34375 2.6953125 C-1.00375 2.6953125 -1.66375 2.6953125 -2.34375 2.6953125 C-2.34375 3.3553125 -2.34375 4.0153125 -2.34375 4.6953125 C-3.2925 4.9428125 -4.24125 5.1903125 -5.21875 5.4453125 C-8.46221364 6.32487351 -8.46221364 6.32487351 -9.28125 8.7578125 C-9.631875 9.3971875 -9.9825 10.0365625 -10.34375 10.6953125 C-13.96875 11.4453125 -13.96875 11.4453125 -17.34375 11.6953125 C-14.5552727 7.89403921 -11.81077187 5.35964243 -7.84375 2.8203125 C-6.9053125 2.20414063 -5.966875 1.58796875 -5 0.953125 C-2.34375 -0.3046875 -2.34375 -0.3046875 0 0 Z " fill="#BE3D3D" transform="translate(183.34375,200.3046875)"/>
<path d="M0 0 C0.66 0 1.32 0 2 0 C2.76595745 17.34042553 2.76595745 17.34042553 -2 25 C-2.33 25 -2.66 25 -3 25 C-3.25237449 19.44776119 -3.25237449 19.44776119 -2.03125 17.28125 C-0.56081751 14.0284751 -0.53437951 10.76299012 -0.375 7.25 C-0.33632812 6.55261719 -0.29765625 5.85523438 -0.2578125 5.13671875 C-0.16401376 3.42489182 -0.08093826 1.71248318 0 0 Z " fill="#BA4244" transform="translate(163,156)"/>
<path d="M0 0 C-7.97180824 3.98590412 -21.18983828 2.12050373 -30 2 C-30 1.67 -30 1.34 -30 1 C-25.75237731 0.43847107 -21.50175828 -0.0957727 -17.25 -0.625 C-15.44015625 -0.86476563 -15.44015625 -0.86476563 -13.59375 -1.109375 C-12.43359375 -1.25117188 -11.2734375 -1.39296875 -10.078125 -1.5390625 C-9.00981445 -1.67521973 -7.94150391 -1.81137695 -6.84082031 -1.95166016 C-3.87743969 -2.00208551 -2.47031897 -1.56870466 0 0 Z " fill="#B53032" transform="translate(180,316)"/>
<path d="M0 0 C0.33 0.99 0.66 1.98 1 3 C7.27 2.67 13.54 2.34 20 2 C15.6111345 5.29164912 13.24813294 5.46008787 8.0625 5.375 C7.35931641 5.38660156 6.65613281 5.39820313 5.93164062 5.41015625 C1.43961742 5.38489651 -1.38495448 4.67414326 -5 2 C-4.360625 1.855625 -3.72125 1.71125 -3.0625 1.5625 C-1.02454854 1.18992819 -1.02454854 1.18992819 0 0 Z " fill="#BA3E3F" transform="translate(372,292)"/>
<path d="M0 0 C2.97 0.495 2.97 0.495 6 1 C6 2.32 6 3.64 6 5 C5.34 5.66 4.68 6.32 4 7 C4 8.32 4 9.64 4 11 C2.35 10.67 0.7 10.34 -1 10 C-0.34 9.67 0.32 9.34 1 9 C0.67 8.34 0.34 7.68 0 7 C-0.04022391 4.6670134 -0.04320247 2.33293334 0 0 Z " fill="#D01515" transform="translate(450,275)"/>
<path d="M0 0 C2.475 0.99 2.475 0.99 5 2 C4.566875 2.96099609 4.566875 2.96099609 4.125 3.94140625 C1.85115713 9.23914432 0.49858488 13.23372609 1 19 C0.34 19 -0.32 19 -1 19 C-1.02683987 16.02077407 -1.04676037 13.04178705 -1.0625 10.0625 C-1.07087891 9.21236328 -1.07925781 8.36222656 -1.08789062 7.48632812 C-1.09111328 6.67744141 -1.09433594 5.86855469 -1.09765625 5.03515625 C-1.10289307 4.2862915 -1.10812988 3.53742676 -1.11352539 2.76586914 C-1 1 -1 1 0 0 Z " fill="#CD2829" transform="translate(58,261)"/>
<path d="M0 0 C0.66 0 1.32 0 2 0 C3.625 2 3.625 2 5 4 C4.34 4 3.68 4 3 4 C3 4.66 3 5.32 3 6 C2.34 6 1.68 6 1 6 C1 6.66 1 7.32 1 8 C0.34 8 -0.32 8 -1 8 C-1.33 8.99 -1.66 9.98 -2 11 C-4.97 10.505 -4.97 10.505 -8 10 C-8 9.01 -8 8.02 -8 7 C-6.02 7 -4.04 7 -2 7 C-1.855625 6.21625 -1.71125 5.4325 -1.5625 4.625 C-1 2 -1 2 0 0 Z " fill="#CB2D30" transform="translate(184,215)"/>
<path d="M0 0 C0.99 0.33 1.98 0.66 3 1 C2.855625 1.61746094 2.71125 2.23492187 2.5625 2.87109375 C1.28636949 8.69343921 0.7811032 14.05330357 1 20 C1 20.99 1 21.98 1 23 C-1.00929408 21.35121251 -1.9187861 20.47593094 -2.36328125 17.87109375 C-2.23500972 11.72392738 -1.42531812 5.98124569 0 0 Z " fill="#B22D2F" transform="translate(293,253)"/>
<path d="M0 0 C0 3.19633438 -0.33810135 4.34096216 -2 7 C-2.639375 7.474375 -3.27875 7.94875 -3.9375 8.4375 C-6.39450484 10.29886731 -7.43953615 12.37558352 -9 15 C-9.66 15 -10.32 15 -11 15 C-10.35494404 11.51669784 -9.01782732 8.90567134 -7 6 C-6.34 6 -5.68 6 -5 6 C-4.731875 5.38125 -4.46375 4.7625 -4.1875 4.125 C-3 2 -3 2 0 0 Z " fill="#CA5052" transform="translate(44,251)"/>
<path d="M0 0 C0.33 0 0.66 0 1 0 C1.07427838 3.34252724 1.06546953 5.8035914 0 9 C-0.34350629 10.33074878 -0.67612688 11.66433721 -1 13 C-1.66666667 15.66666667 -2.33333333 18.33333333 -3 21 C-3.99 21 -4.98 21 -6 21 C-4.44761232 13.77754385 -2.81627358 6.83952155 0 0 Z " fill="#C9565A" transform="translate(245,202)"/>
<path d="M0 0 C0 3.33333333 0 6.66666667 0 10 C-0.66 9.67 -1.32 9.34 -2 9 C-1.67 8.34 -1.34 7.68 -1 7 C-1.66 7 -2.32 7 -3 7 C-3 8.65 -3 10.3 -3 12 C-3.99 11.67 -4.98 11.34 -6 11 C-6 11.66 -6 12.32 -6 13 C-6.99 12.67 -7.98 12.34 -9 12 C-7.88096454 10.18381144 -6.75458716 8.37214474 -5.625 6.5625 C-4.68527344 5.04849609 -4.68527344 5.04849609 -3.7265625 3.50390625 C-2 1 -2 1 0 0 Z " fill="#CB2C2E" transform="translate(270,148)"/>
<path d="M0 0 C0.33 0.66 0.66 1.32 1 2 C0.67 2.66 0.34 3.32 0 4 C2.64 4 5.28 4 8 4 C8 3.01 8 2.02 8 1 C10.64 1 13.28 1 16 1 C11.27504642 4.71246353 7.96859966 6.44904104 1.90625 6.3359375 C-0.98233409 5.82688375 -2.28836028 4.28218629 -4 2 C-2.68 1.34 -1.36 0.68 0 0 Z " fill="#BE3F41" transform="translate(94,355)"/>
<path d="M0 0 C0.66 0 1.32 0 2 0 C1.74279326 1.58560393 1.46861201 3.16845924 1.1875 4.75 C1.03667969 5.63171875 0.88585937 6.5134375 0.73046875 7.421875 C-0.06294257 10.22215024 -1.02747718 11.87345147 -3 14 C-3.66 14 -4.32 14 -5 14 C-5 15.65 -5 17.3 -5 19 C-5.66 19 -6.32 19 -7 19 C-5.29256731 12.45484135 -3.0295314 6.0590628 0 0 Z " fill="#C33A3E" transform="translate(276,236)"/>
<path d="M0 0 C3 2 3 2 4 4 C3.5625 6.125 3.5625 6.125 3 8 C2.01 7.67 1.02 7.34 0 7 C0 6.34 0 5.68 0 5 C-0.99 5.495 -0.99 5.495 -2 6 C-4.6723621 6.13415472 -7.32250488 6.04318541 -10 6 C-9.46375 5.7525 -8.9275 5.505 -8.375 5.25 C-5.43575748 3.70303025 -2.74245592 1.86985631 0 0 Z " fill="#C8191C" transform="translate(177,273)"/>
<path d="M0 0 C0.66 0.33 1.32 0.66 2 1 C2 2.65 2 4.3 2 6 C-0.97 6.66 -3.94 7.32 -7 8 C-7 7.34 -7 6.68 -7 6 C-11.455 6.495 -11.455 6.495 -16 7 C-13.27893306 4.27893306 -11.15223689 4.39344428 -7.375 3.875 C-6.18648438 3.70742187 -4.99796875 3.53984375 -3.7734375 3.3671875 C-2.85820312 3.24601563 -1.94296875 3.12484375 -1 3 C-0.67 2.01 -0.34 1.02 0 0 Z " fill="#B62729" transform="translate(387,189)"/>
<path d="M0 0 C1.8253125 0.4640625 1.8253125 0.4640625 3.6875 0.9375 C9.73076221 2.29868206 15.82945928 2.63758803 22 3 C19.26612121 5.73387879 17.62809808 5.33109208 13.8125 5.375 C7.9537987 5.31004766 4.66964913 4.47508773 0 1 C0 0.67 0 0.34 0 0 Z " fill="#BF4B4F" transform="translate(273,292)"/>
<path d="M0 0 C2 2 2 2 2.125 4.625 C2.08375 5.40875 2.0425 6.1925 2 7 C1.34 7 0.68 7 0 7 C-0.103125 7.66 -0.20625 8.32 -0.3125 9 C-1.19213564 12.83841009 -2.56969896 16.33096691 -4 20 C-4.66 20 -5.32 20 -6 20 C-4 13.33333333 -2 6.66666667 0 0 Z " fill="#C9595D" transform="translate(199,228)"/>
<path d="M0 0 C0.99 0 1.98 0 3 0 C3.26023028 3.96675351 2.64722408 6.30458539 0.6875 9.75 C0.25824219 10.52859375 -0.17101562 11.3071875 -0.61328125 12.109375 C-2 14 -2 14 -5 15 C-1.92482916 4.44191344 -1.92482916 4.44191344 0 0 Z " fill="#C94648" transform="translate(256,171)"/>
<path d="M0 0 C0.66 0.66 1.32 1.32 2 2 C1.6796875 3.84375 1.6796875 3.84375 1 6 C0.85820312 6.7321875 0.71640625 7.464375 0.5703125 8.21875 C-0.96682464 16.09320695 -0.96682464 16.09320695 -4 19 C-4.66 19 -5.32 19 -6 19 C-4.24980222 12.58260813 -2.13097096 6.29981221 0 0 Z " fill="#C14244" transform="translate(378,214)"/>
<path d="M0 0 C0.33 0.99 0.66 1.98 1 3 C-2.83325617 5.70582788 -5.32538149 6.32613618 -10 6 C-10.33 6.66 -10.66 7.32 -11 8 C-11.33 6.68 -11.66 5.36 -12 4 C-10.35 4 -8.7 4 -7 4 C-7 3.34 -7 2.68 -7 2 C-4.69 1.34 -2.38 0.68 0 0 Z " fill="#D11714" transform="translate(315,200)"/>
<path d="M0 0 C0.33 0.66 0.66 1.32 1 2 C-0.155 1.67 -1.31 1.34 -2.5 1 C-9.56258306 -0.60977014 -16.80367946 -0.15893714 -24 0 C-24 -0.33 -24 -0.66 -24 -1 C-15.81915958 -3.06655885 -7.75667486 -4.12073352 0 0 Z " fill="#C26060" transform="translate(338,198)"/>
<path d="M0 0 C0.66 0 1.32 0 2 0 C2 0.66 2 1.32 2 2 C2.515625 1.67 3.03125 1.34 3.5625 1 C6.78026512 -0.32010877 9.5570528 -0.13242105 13 0 C9.8367155 1.6720218 6.6178082 2.92221136 3.25 4.125 C2.26515625 4.47820312 1.2803125 4.83140625 0.265625 5.1953125 C-0.48203125 5.46085937 -1.2296875 5.72640625 -2 6 C-2.99 5.01 -3.98 4.02 -5 3 C-3.68 3 -2.36 3 -1 3 C-0.67 2.01 -0.34 1.02 0 0 Z " fill="#C0393D" transform="translate(118,348)"/>
<path d="M0 0 C0.33 0 0.66 0 1 0 C1.66 2.31 2.32 4.62 3 7 C1.25 9 1.25 9 -1 11 C-2.32 11 -3.64 11 -5 11 C-5 11.66 -5 12.32 -5 13 C-5.66 12.67 -6.32 12.34 -7 12 C-5.85865673 9.99743426 -4.71181367 7.99800203 -3.5625 6 C-2.92441406 4.88625 -2.28632813 3.7725 -1.62890625 2.625 C-1.09136719 1.75875 -0.55382812 0.8925 0 0 Z " fill="#C93C3E" transform="translate(317,254)"/>
<path d="M0 0 C2 3 2 3 2 6 C0.3125 6.6875 0.3125 6.6875 -2 7 C-4.75 5.75 -4.75 5.75 -7 4 C-7 3.01 -7 2.02 -7 1 C-4 0 -4 0 0 0 Z " fill="#C92728" transform="translate(408,161)"/>
<path d="M0 0 C1.98 0.66 3.96 1.32 6 2 C6 2.33 6 2.66 6 3 C3.41842632 3.53132389 0.83538244 4.05034379 -1.75 4.5625 C-2.47960937 4.71396484 -3.20921875 4.86542969 -3.9609375 5.02148438 C-7.66557073 5.74557178 -10.39322322 6.09817231 -14 5 C-10.99133303 2.99422202 -9.35523925 2.54121497 -5.875 1.9375 C-2.63891608 1.58395374 -2.63891608 1.58395374 0 0 Z " fill="#C74F51" transform="translate(156,339)"/>
<path d="M0 0 C0.70125 0.2475 1.4025 0.495 2.125 0.75 C1.795 3.06 1.465 5.37 1.125 7.75 C0.465 7.75 -0.195 7.75 -0.875 7.75 C-0.875 6.1 -0.875 4.45 -0.875 2.75 C-1.865 2.75 -2.855 2.75 -3.875 2.75 C-3.875 3.41 -3.875 4.07 -3.875 4.75 C-5.525 5.08 -7.175 5.41 -8.875 5.75 C-8.875 5.09 -8.875 4.43 -8.875 3.75 C-3.85592031 -0.33529742 -3.85592031 -0.33529742 0 0 Z " fill="#C04E51" transform="translate(463.875,266.25)"/>
<path d="M0 0 C1.43957405 2.8791481 0.29037478 4.78996894 -0.51953125 7.7578125 C-1.26099601 11.21798138 -1.12600996 14.47172107 -1 18 C-1.66 18.33 -2.32 18.66 -3 19 C-5.06911973 12.79264081 -3.88625438 7.07793077 -2 1 C-1.34 0.67 -0.68 0.34 0 0 Z " fill="#BE3433" transform="translate(103,171)"/>
<path d="M0 0 C2 3 2 3 1.7578125 5.48046875 C1.54898437 6.37378906 1.34015625 7.26710937 1.125 8.1875 C0.92132813 9.08855469 0.71765625 9.98960937 0.5078125 10.91796875 C0.25644531 11.94857422 0.25644531 11.94857422 0 13 C-0.33 13 -0.66 13 -1 13 C-1 9.37 -1 5.74 -1 2 C-4.3 2 -7.6 2 -11 2 C-6.91569792 -0.72286806 -4.85409123 -0.38524534 0 0 Z " fill="#C6696C" transform="translate(422,158)"/>
<path d="M0 0 C2.31 0 4.62 0 7 0 C5.49776416 4.20626034 2.71449966 5.73900021 -1 8 C-1 7.34 -1 6.68 -1 6 C-1.66 5.67 -2.32 5.34 -3 5 C-2.01 5 -1.02 5 0 5 C0 3.35 0 1.7 0 0 Z " fill="#C4292A" transform="translate(66,252)"/>
<path d="M0 0 C0.66 0.33 1.32 0.66 2 1 C1.67 5.95 1.34 10.9 1 16 C2.98 16 4.96 16 7 16 C5.1875 17.0625 5.1875 17.0625 3 18 C0 17 0 17 -1.25 15.4375 C-2.75813355 10.53606597 -1.07730433 4.92481979 0 0 Z " fill="#BF3A3C" transform="translate(389,260)"/>
<path d="M0 0 C0.99 0.33 1.98 0.66 3 1 C2.8125 2.875 2.8125 2.875 2 5 C0.33333333 5.66666667 -1.33333333 6.33333333 -3 7 C-3.88693303 9.04105639 -3.88693303 9.04105639 -4 11 C-4.66 10.67 -5.32 10.34 -6 10 C-4.6302836 6.00499382 -2.74277578 3.19990508 0 0 Z " fill="#C94A4E" transform="translate(448,160)"/>
<path d="M0 0 C0 0.99 0 1.98 0 3 C-6.6 3.33 -13.2 3.66 -20 4 C-16.64519435 1.7634629 -14.51938805 1.44091134 -10.5625 0.875 C-9.42941406 0.70742188 -8.29632813 0.53984375 -7.12890625 0.3671875 C-4 0 -4 0 0 0 Z " fill="#BD4749" transform="translate(150,318)"/>
<path d="M0 0 C0.99 0 1.98 0 3 0 C2.54857225 1.77260631 2.08859477 3.5430368 1.625 5.3125 C1.36976563 6.29863281 1.11453125 7.28476563 0.8515625 8.30078125 C0 11 0 11 -2 14 C-2.66 14 -3.32 14 -4 14 C-4 13.01 -4 12.02 -4 11 C-3.34 11 -2.68 11 -2 11 C-2 8.69 -2 6.38 -2 4 C-1.34 4 -0.68 4 0 4 C0 2.68 0 1.36 0 0 Z " fill="#C94245" transform="translate(265,224)"/>
<path d="M0 0 C0.66 0 1.32 0 2 0 C1.67 2.31 1.34 4.62 1 7 C-2 8 -5 9 -8 10 C-8 9.34 -8 8.68 -8 8 C-7.34 8 -6.68 8 -6 8 C-5.7525 7.38125 -5.505 6.7625 -5.25 6.125 C-3.79371361 3.64931313 -2.62187494 3.04874998 0 2 C0 1.34 0 0.68 0 0 Z " fill="#C84F4F" transform="translate(297,207)"/>
<path d="M0 0 C0 0.66 0 1.32 0 2 C-3 4 -3 4 -6 4 C-6.33 4.99 -6.66 5.98 -7 7 C-9.64 7.33 -12.28 7.66 -15 8 C-11.0826156 4.57228865 -5.47848189 0 0 0 Z " fill="#BD3A3D" transform="translate(107,142)"/>
<path d="M0 0 C0.99 0.495 0.99 0.495 2 1 C2 1.99 2 2.98 2 4 C2.66 4 3.32 4 4 4 C4 3.01 4 2.02 4 1 C4.66 1 5.32 1 6 1 C7.0326802 3.78823655 7.04509293 4.8677274 6.0625 7.75 C5.711875 8.4925 5.36125 9.235 5 10 C4.34 10 3.68 10 3 10 C0.96564469 6.27034861 0 4.33094958 0 0 Z " fill="#CA3637" transform="translate(360,281)"/>
<path d="M0 0 C0 0.66 0 1.32 0 2 C-4.4024732 5.65083143 -7.32822615 6.45374191 -13 6 C-9.13878354 2.5930443 -5.3218579 0 0 0 Z " fill="#C23C3F" transform="translate(58,245)"/>
<path d="M0 0 C2.9375 0.375 2.9375 0.375 6 1 C6.33 1.66 6.66 2.32 7 3 C9.30965848 4.05352843 11.6429774 5.05719096 14 6 C14 6.66 14 7.32 14 8 C12.5410574 7.52269162 11.08286504 7.04308958 9.625 6.5625 C8.81289063 6.29566406 8.00078125 6.02882813 7.1640625 5.75390625 C5 5 5 5 3 4 C3 3.34 3 2.68 3 2 C2.01 1.67 1.02 1.34 0 1 C0 0.67 0 0.34 0 0 Z " fill="#BE4444" transform="translate(38,299)"/>
<path d="M0 0 C1.23556641 0.01740234 1.23556641 0.01740234 2.49609375 0.03515625 C3.32238281 0.04417969 4.14867187 0.05320312 5 0.0625 C5.63808594 0.07410156 6.27617187 0.08570313 6.93359375 0.09765625 C4.09928922 3.35185775 2.24751601 4.61833155 -2.06640625 5.09765625 C-2.62890625 3.16015625 -2.62890625 3.16015625 -3.06640625 1.09765625 C-2.06640625 0.09765625 -2.06640625 0.09765625 0 0 Z " fill="#CA393D" transform="translate(341.06640625,290.90234375)"/>
<path d="M0 0 C0.33 0.99 0.66 1.98 1 3 C0.34 3 -0.32 3 -1 3 C-0.979375 3.78375 -0.95875 4.5675 -0.9375 5.375 C-1 8 -1 8 -2 10 C-3.65 10 -5.3 10 -7 10 C-7.33 9.01 -7.66 8.02 -8 7 C-7.195625 6.731875 -6.39125 6.46375 -5.5625 6.1875 C-4.716875 5.795625 -3.87125 5.40375 -3 5 C-2.67 4.01 -2.34 3.02 -2 2 C-1.34 2 -0.68 2 0 2 C0 1.34 0 0.68 0 0 Z " fill="#CD4445" transform="translate(100,276)"/>
<path d="M0 0 C0 0.99 0 1.98 0 3 C-0.99 3 -1.98 3 -3 3 C-3.33 4.65 -3.66 6.3 -4 8 C-4.99 7.67 -5.98 7.34 -7 7 C-7 5.68 -7 4.36 -7 3 C-6.34 3 -5.68 3 -5 3 C-5.33 2.01 -5.66 1.02 -6 0 C-3 -1 -3 -1 0 0 Z " fill="#D01516" transform="translate(193,210)"/>
<path d="M0 0 C1.98 0 3.96 0 6 0 C5.06725891 1.12894876 4.12859878 2.25300876 3.1875 3.375 C2.66542969 4.00148438 2.14335937 4.62796875 1.60546875 5.2734375 C0 7 0 7 -3 9 C-3 7.35 -3 5.7 -3 4 C-2.01 3.67 -1.02 3.34 0 3 C0 2.01 0 1.02 0 0 Z " fill="#C9474A" transform="translate(307,282)"/>
<path d="M0 0 C-0.33 2.31 -0.66 4.62 -1 7 C-1.33 6.01 -1.66 5.02 -2 4 C-2.66 4 -3.32 4 -4 4 C-4 4.66 -4 5.32 -4 6 C-4.99 6 -5.98 6 -7 6 C-7.33 4.68 -7.66 3.36 -8 2 C-4.91190305 0.23537317 -3.76687864 0 0 0 Z " fill="#D91519" transform="translate(264,278)"/>
<path d="M0 0 C0.99 0 1.98 0 3 0 C3.75 2.6875 3.75 2.6875 4 6 C2.0625 8.875 2.0625 8.875 0 11 C-0.19491452 9.54263913 -0.38069358 8.08405407 -0.5625 6.625 C-0.66691406 5.81289063 -0.77132813 5.00078125 -0.87890625 4.1640625 C-1 2 -1 2 0 0 Z " fill="#CE3336" transform="translate(460,269)"/>
<path d="M0 0 C0.66 0 1.32 0 2 0 C1.52060632 4.71403788 1.03165952 8.66579301 -1 13 C-1.33 13 -1.66 13 -2 13 C-3.34465195 5.78777589 -3.34465195 5.78777589 -1.6875 2 C-1.130625 1.34 -0.57375 0.68 0 0 Z " fill="#C83E42" transform="translate(300,235)"/>
<path d="M0 0 C1.33332095 2.6666419 0.67102033 4.16680303 0 7 C-1.32 7.33 -2.64 7.66 -4 8 C-4 8.66 -4 9.32 -4 10 C-5.32 9.67 -6.64 9.34 -8 9 C-5.36 6.03 -2.72 3.06 0 0 Z " fill="#C13C3C" transform="translate(165,212)"/>
<path d="M0 0 C4.95 0 9.9 0 15 0 C15 0.33 15 0.66 15 1 C10.38 1 5.76 1 1 1 C0.67 2.98 0.34 4.96 0 7 C-0.33 7.99 -0.66 8.98 -1 10 C-1.66 10 -2.32 10 -3 10 C-3 8.35 -3 6.7 -3 5 C-2.34 4.67 -1.68 4.34 -1 4 C-0.67 2.68 -0.34 1.36 0 0 Z " fill="#D06968" transform="translate(406,210)"/>
<path d="M0 0 C1.77049689 -0.05410687 3.54146849 -0.09284119 5.3125 -0.125 C6.29863281 -0.14820313 7.28476562 -0.17140625 8.30078125 -0.1953125 C11 0 11 0 14 2 C10.0186217 3.3271261 6.14954773 3.06915913 2 3 C2 2.34 2 1.68 2 1 C1.34 0.67 0.68 0.34 0 0 Z " fill="#C84C4B" transform="translate(341,335)"/>
<path d="M0 0 C1.98 0 3.96 0 6 0 C5 2 5 2 3 3.0625 C-3.03902085 4.94969402 -8.79693916 5.43147558 -15 4 C-15 3.67 -15 3.34 -15 3 C-10.38 3 -5.76 3 -1 3 C-0.67 2.01 -0.34 1.02 0 0 Z " fill="#C64E4F" transform="translate(167,293)"/>
<path d="M0 0 C2 2 2 2 2.046875 4.09375 C1.94890625 4.8878125 1.8509375 5.681875 1.75 6.5 C1.66234375 7.2940625 1.5746875 8.088125 1.484375 8.90625 C1 11 1 11 -1 13 C-2.51403812 8.15507803 -1.36602172 4.7408989 0 0 Z " fill="#C0383C" transform="translate(105,262)"/>
<path d="M0 0 C0.66 1.32 1.32 2.64 2 4 C0.47005208 5.20442708 -1.05989583 6.40885417 -2.58984375 7.61328125 C-4.27155077 9.05683091 -4.27155077 9.05683091 -5 12 C-5.66 11.67 -6.32 11.34 -7 11 C-6.40361667 9.72549553 -5.79752584 8.45553123 -5.1875 7.1875 C-4.85105469 6.47980469 -4.51460937 5.77210938 -4.16796875 5.04296875 C-2.99354529 2.98870965 -1.74371984 1.58383722 0 0 Z " fill="#C33F3F" transform="translate(192,252)"/>
<path d="M0 0 C2.13288249 4.26576498 2.24882352 4.73318631 1 9 C0.36562656 10.6792238 -0.29289322 12.35008418 -1 14 C-1.66 14 -2.32 14 -3 14 C-2.01 9.38 -1.02 4.76 0 0 Z " fill="#C03E40" transform="translate(231,248)"/>
<path d="M0 0 C0.33 0 0.66 0 1 0 C1.75612577 5.23471686 2.2063366 9.77254141 1 15 C0.34 15 -0.32 15 -1 15 C-1 15.99 -1 16.98 -1 18 C-1.66 18 -2.32 18 -3 18 C-2.690625 16.88625 -2.38125 15.7725 -2.0625 14.625 C-0.84199336 9.79490988 -0.38600363 4.95709931 0 0 Z " fill="#CA5253" transform="translate(330,213)"/>
<path d="M0 0 C0.99 0.33 1.98 0.66 3 1 C0.9375 3.0625 0.9375 3.0625 -2 5 C-5.8125 4.75 -5.8125 4.75 -9 4 C-8.34 3.01 -7.68 2.02 -7 1 C-4.69 1.33 -2.38 1.66 0 2 C0 1.34 0 0.68 0 0 Z " fill="#C1292A" transform="translate(108,297)"/>
<path d="M0 0 C-0.33 0.99 -0.66 1.98 -1 3 C-4.0625 4.1875 -4.0625 4.1875 -7 5 C-7.33 3.68 -7.66 2.36 -8 1 C-4.93251126 -0.86240388 -3.40254489 -1.2151946 0 0 Z " fill="#C63939" transform="translate(218,291)"/>
<path d="M0 0 C1.1171875 1.671875 1.1171875 1.671875 2 4 C1.3203125 6.578125 1.3203125 6.578125 0.125 9.25 C-0.26429688 10.14203125 -0.65359375 11.0340625 -1.0546875 11.953125 C-1.36664063 12.62859375 -1.67859375 13.3040625 -2 14 C-2.33 14 -2.66 14 -3 14 C-3.33 11.03 -3.66 8.06 -4 5 C-3.01 5 -2.02 5 -1 5 C-0.67 3.35 -0.34 1.7 0 0 Z " fill="#C24646" transform="translate(448,236)"/>
<path d="M0 0 C2.91375388 1.45687694 3.35777779 3.50753903 4.6875 6.4375 C5.14511719 7.42621094 5.60273438 8.41492188 6.07421875 9.43359375 C6.37972656 10.28050781 6.68523437 11.12742188 7 12 C6.67 12.66 6.34 13.32 6 14 C5.34 12.68 4.68 11.36 4 10 C3.34 10 2.68 10 2 10 C2 8.35 2 6.7 2 5 C1.34 5 0.68 5 0 5 C0 3.35 0 1.7 0 0 Z " fill="#C65657" transform="translate(129,225)"/>
<path d="M0 0 C1.32 0 2.64 0 4 0 C4.33 0.99 4.66 1.98 5 3 C4.38125 3.2475 3.7625 3.495 3.125 3.75 C0.64931313 5.20628639 0.04874998 6.37812506 -1 9 C-2.0326802 6.21176345 -2.04509293 5.1322726 -1.0625 2.25 C-0.711875 1.5075 -0.36125 0.765 0 0 Z " fill="#D01514" transform="translate(166,212)"/>
<path d="M0 0 C0.99 0 1.98 0 3 0 C3 0.66 3 1.32 3 2 C3.66 2 4.32 2 5 2 C6.0070238 7.03511899 5.97387813 10.23947038 4 15 C3.67 15 3.34 15 3 15 C3.03480469 14.22914063 3.06960938 13.45828125 3.10546875 12.6640625 C3.13253906 11.66117188 3.15960938 10.65828125 3.1875 9.625 C3.22230469 8.62726563 3.25710938 7.62953125 3.29296875 6.6015625 C3.19628906 5.74304688 3.09960938 4.88453125 3 4 C2.01 3.34 1.02 2.68 0 2 C0 1.34 0 0.68 0 0 Z " fill="#B94F52" transform="translate(290,145)"/>
<path d="M0 0 C2.375 0.1875 2.375 0.1875 5 1 C6.3125 3.5625 6.3125 3.5625 7 6 C7.66 6 8.32 6 9 6 C9.33 7.98 9.66 9.96 10 12 C6.11024581 8.40945767 3.10267805 4.26101118 0 0 Z " fill="#C54D4F" transform="translate(91,236)"/>
<path d="M0 0 C0.66 0.99 1.32 1.98 2 3 C1.5359375 3.7734375 1.5359375 3.7734375 1.0625 4.5625 C-0.29059287 7.66665423 -0.61359424 10.65115007 -1 14 C-1.99 14.33 -2.98 14.66 -4 15 C-3.32584613 9.7415998 -1.75734451 4.97361654 0 0 Z " fill="#C8555B" transform="translate(250,187)"/>
<path d="M0 0 C1.24546405 2.49092811 0.7767578 3.41080733 0 6 C-0.66 6 -1.32 6 -2 6 C-2.12375 6.639375 -2.2475 7.27875 -2.375 7.9375 C-2.58125 8.618125 -2.7875 9.29875 -3 10 C-3.99 10.495 -3.99 10.495 -5 11 C-5.3125 7.75 -5.3125 7.75 -5 4 C-2.5 1.5625 -2.5 1.5625 0 0 Z " fill="#D11618" transform="translate(471,172)"/>
<path d="M0 0 C0.66 0 1.32 0 2 0 C2.33 1.98 2.66 3.96 3 6 C3.99 6.33 4.98 6.66 6 7 C4.35 7.33 2.7 7.66 1 8 C-1 5 -1 5 -0.625 2.3125 C-0.41875 1.549375 -0.2125 0.78625 0 0 Z " fill="#C03B3F" transform="translate(132,183)"/>
<path d="M0 0 C1.45792884 -0.05399736 2.91642712 -0.09279177 4.375 -0.125 C5.18710937 -0.14820313 5.99921875 -0.17140625 6.8359375 -0.1953125 C9 0 9 0 11 2 C10.67 2.99 10.34 3.98 10 5 C8.68 5 7.36 5 6 5 C6 4.01 6 3.02 6 2 C3.03 1.505 3.03 1.505 0 1 C0 0.67 0 0.34 0 0 Z " fill="#BE3D3E" transform="translate(279,143)"/>
<path d="M0 0 C1 2 2 4 3 6 C5.52733235 6.65555119 5.52733235 6.65555119 8 7 C8 7.33 8 7.66 8 8 C6.39125 7.938125 6.39125 7.938125 4.75 7.875 C1.34252515 7.9885825 -0.20739631 8.21273364 -3 10 C-3.33 9.01 -3.66 8.02 -4 7 C-2.68 6.67 -1.36 6.34 0 6 C0 4.02 0 2.04 0 0 Z " fill="#BF2628" transform="translate(438,270)"/>
<path d="M0 0 C-0.66 0 -1.32 0 -2 0 C-2.33 1.32 -2.66 2.64 -3 4 C-3.66 4 -4.32 4 -5 4 C-5.33 4.66 -5.66 5.32 -6 6 C-6.33 3.69 -6.66 1.38 -7 -1 C-3.51418144 -2.2020064 -3.32007656 -2.21338437 0 0 Z " fill="#C41518" transform="translate(112,258)"/>
<path d="M0 0 C0.99 0.66 1.98 1.32 3 2 C0.65828261 4.34171739 -0.23060454 4.391923 -3.4375 4.75 C-4.61119141 4.89695313 -4.61119141 4.89695313 -5.80859375 5.046875 C-8 5 -8 5 -11 3 C-5.555 2.505 -5.555 2.505 0 2 C0 1.34 0 0.68 0 0 Z " fill="#BB3A39" transform="translate(462,185)"/>
<path d="M0 0 C0.66 0 1.32 0 2 0 C2.33 2.97 2.66 5.94 3 9 C3.66 9 4.32 9 5 9 C4.67 9.99 4.34 10.98 4 12 C2.68 11.67 1.36 11.34 0 11 C0 7.37 0 3.74 0 0 Z " fill="#C13F3C" transform="translate(138,161)"/>
<path d="M0 0 C0.66 0 1.32 0 2 0 C3.125 3.75 3.125 3.75 2 6 C1.34 6 0.68 6 0 6 C-0.33 6.99 -0.66 7.98 -1 9 C-1.66 9 -2.32 9 -3 9 C-3 7.35 -3 5.7 -3 4 C-1.68 4 -0.36 4 1 4 C0.67 2.68 0.34 1.36 0 0 Z " fill="#C84247" transform="translate(181,280)"/>
<path d="M0 0 C1.71056541 2.58430745 2.05220752 3.68321539 1.5390625 6.796875 C1.23742187 7.77140625 0.93578125 8.7459375 0.625 9.75 C0.32851563 10.73484375 0.03203125 11.7196875 -0.2734375 12.734375 C-0.51320313 13.48203125 -0.75296875 14.2296875 -1 15 C-1.33 15 -1.66 15 -2 15 C-2.21755666 9.5610835 -2.10428384 5.12919186 0 0 Z " fill="#C85757" transform="translate(442,254)"/>
<path d="M0 0 C2.31 0.33 4.62 0.66 7 1 C6.443125 1.268125 5.88625 1.53625 5.3125 1.8125 C2.91066602 3.00699665 2.91066602 3.00699665 0.375 4.625 C-2 6 -2 6 -4 6 C-3.67 4.68 -3.34 3.36 -3 2 C-2.01 2 -1.02 2 0 2 C0 1.34 0 0.68 0 0 Z " fill="#BD393D" transform="translate(193,211)"/>
<path d="M0 0 C-1.29743778 2.59487555 -2.29362471 3.02269781 -5 4 C-7.75 3.625 -7.75 3.625 -10 3 C-9 1 -9 1 -6.125 -0.1875 C-3 -1 -3 -1 0 0 Z " fill="#D9151B" transform="translate(389,196)"/>
<path d="M0 0 C2.125 0.375 2.125 0.375 4 1 C3.67 1.33 3.34 1.66 3 2 C6.3 2.33 9.6 2.66 13 3 C13 3.33 13 3.66 13 4 C7.06 4.495 7.06 4.495 1 5 C1 4.34 1 3.68 1 3 C0.01 2.67 -0.98 2.34 -2 2 C-1.34 1.34 -0.68 0.68 0 0 Z " fill="#D0413F" transform="translate(120,152)"/>
<path d="M0 0 C-1.0625 1.9375 -1.0625 1.9375 -3 4 C-6.6875 4.75 -6.6875 4.75 -10 5 C-9.1875 3.0625 -9.1875 3.0625 -8 1 C-5.07175348 0.02391783 -3.04386724 -0.08226668 0 0 Z " fill="#C13032" transform="translate(106,331)"/>
<path d="M0 0 C1.4783226 2.95664519 1.06032783 5.74229737 1 9 C2.65 9 4.3 9 6 9 C5.67 9.99 5.34 10.98 5 12 C3.33388095 12.042721 1.66617115 12.04063832 0 12 C-1 11 -1 11 -1.1328125 8.75 C-1.13023437 7.8425 -1.12765625 6.935 -1.125 6 C-1.12757813 5.0925 -1.13015625 4.185 -1.1328125 3.25 C-1 1 -1 1 0 0 Z " fill="#CC5B5D" transform="translate(342,267)"/>
<path d="M0 0 C1.09658936 3.28976808 0.79953138 4.71303767 0 8 C-2.31 7.34 -4.62 6.68 -7 6 C-6.21625 5.38125 -5.4325 4.7625 -4.625 4.125 C-2.03162353 2.10141339 -2.03162353 2.10141339 0 0 Z " fill="#C83A3C" transform="translate(406,270)"/>
<path d="M0 0 C1.21065165 3.63195496 0.62784815 5.06531629 -0.4375 8.6875 C-0.86869141 10.17830078 -0.86869141 10.17830078 -1.30859375 11.69921875 C-1.53675781 12.45847656 -1.76492187 13.21773438 -2 14 C-2.33 14 -2.66 14 -3 14 C-3 10.37 -3 6.74 -3 3 C-2.34 3 -1.68 3 -1 3 C-0.67 2.01 -0.34 1.02 0 0 Z " fill="#C44D54" transform="translate(169,249)"/>
<path d="M0 0 C1.19156292 4.76625167 0.3415946 5.87879351 -2 10 C-2.99 9.67 -3.98 9.34 -5 9 C-3.35 6.03 -1.7 3.06 0 0 Z " fill="#C24144" transform="translate(155,224)"/>
<path d="M0 0 C0.66 0.33 1.32 0.66 2 1 C1.67 1.66 1.34 2.32 1 3 C0.9603287 4.66619446 0.95615553 6.33391013 1 8 C-0.32 7.67 -1.64 7.34 -3 7 C-2.25 2.25 -2.25 2.25 0 0 Z " fill="#DB1419" transform="translate(221,277)"/>
<path d="M0 0 C0.33 0 0.66 0 1 0 C1 2.97 1 5.94 1 9 C-0.32 9 -1.64 9 -3 9 C-3 9.99 -3 10.98 -3 12 C-3.99 11.67 -4.98 11.34 -6 11 C-5.34 10.67 -4.68 10.34 -4 10 C-4 9.34 -4 8.68 -4 8 C-3.34 8 -2.68 8 -2 8 C-1.34 5.36 -0.68 2.72 0 0 Z " fill="#C64649" transform="translate(266,264)"/>
<path d="M0 0 C0.66 0.66 1.32 1.32 2 2 C0.515 7.445 0.515 7.445 -1 13 C-1.33 13 -1.66 13 -2 13 C-2 9.7 -2 6.4 -2 3 C-1.34 3 -0.68 3 0 3 C0 2.01 0 1.02 0 0 Z " fill="#C24D4F" transform="translate(257,250)"/>
<path d="M0 0 C0.66 0 1.32 0 2 0 C1.01 3.96 0.02 7.92 -1 12 C-3 9 -3 9 -2.625 5.8125 C-2.41875 4.884375 -2.2125 3.95625 -2 3 C-1.34 3 -0.68 3 0 3 C0 2.01 0 1.02 0 0 Z " fill="#C34447" transform="translate(399,230)"/>
<path d="M0 0 C0.66 0 1.32 0 2 0 C2.66 3.3 3.32 6.6 4 10 C3.01 10 2.02 10 1 10 C-0.1577506 6.52674819 -0.06866652 3.63932552 0 0 Z " fill="#C15457" transform="translate(87,345)"/>
<path d="M0 0 C1.3770046 3.82501277 0.65644615 7.06132308 0 11 C0 11.66 0 12.32 0 13 C-0.66 13 -1.32 13 -2 13 C-2 9.04 -2 5.08 -2 1 C-1.34 0.67 -0.68 0.34 0 0 Z " fill="#BA3D43" transform="translate(59,267)"/>
<path d="M0 0 C2.97 0.495 2.97 0.495 6 1 C6 2.65 6 4.3 6 6 C5.01 6 4.02 6 3 6 C2.01 6.495 2.01 6.495 1 7 C0.67 4.69 0.34 2.38 0 0 Z " fill="#C91313" transform="translate(249,257)"/>
<path d="M0 0 C0.66 0.99 1.32 1.98 2 3 C1.67 3.33 1.34 3.66 1 4 C0.95919217 5.99958364 0.95745644 8.00045254 1 10 C0.01 10.495 0.01 10.495 -1 11 C-2.1875 8.875 -2.1875 8.875 -3 6 C-1.625 2.6875 -1.625 2.6875 0 0 Z " fill="#C93F44" transform="translate(149,234)"/>
<path d="M0 0 C0.66 0.33 1.32 0.66 2 1 C-0.625 7.75 -0.625 7.75 -4 10 C-3.43454163 6.04179141 -2.19097652 3.3340947 0 0 Z " fill="#C4514E" transform="translate(285,220)"/>
<path d="M0 0 C0.66 1.32 1.32 2.64 2 4 C2.97581759 5.35113205 3.97029741 6.68946944 5 8 C4.67 8.66 4.34 9.32 4 10 C3.01 10.33 2.02 10.66 1 11 C0.67 7.37 0.34 3.74 0 0 Z " fill="#C84E4D" transform="translate(102,191)"/>
<path d="M0 0 C0.99 0.33 1.98 0.66 3 1 C2.01 4.3 1.02 7.6 0 11 C-0.33 11 -0.66 11 -1 11 C-1.33 8.69 -1.66 6.38 -2 4 C-1.34 4 -0.68 4 0 4 C0 2.68 0 1.36 0 0 Z " fill="#C85256" transform="translate(417,174)"/>
<path d="M0 0 C0.33 0.99 0.66 1.98 1 3 C0.34 3.66 -0.32 4.32 -1 5 C-3 4 -3 4 -4 2 C-5.98 2 -7.96 2 -10 2 C-6.5980513 -0.09350689 -3.94727588 -0.17942163 0 0 Z " fill="#B81312" transform="translate(402,276)"/>
<path d="M0 0 C0.66 0 1.32 0 2 0 C1.67 2.31 1.34 4.62 1 7 C-0.98 7.66 -2.96 8.32 -5 9 C-3.99088542 7.2421875 -2.98177083 5.484375 -1.97265625 3.7265625 C-1.28280949 2.50201525 -0.62855462 1.25710923 0 0 Z " fill="#C24040" transform="translate(415,258)"/>
<path d="M0 0 C0.66 0 1.32 0 2 0 C2.36923077 5.53846154 2.36923077 5.53846154 0.5 7.875 C-0.2425 8.431875 -0.2425 8.431875 -1 9 C-2.25541557 5.23375329 -1.37061958 3.62811066 0 0 Z " fill="#C44145" transform="translate(241,215)"/>
<path d="M0 0 C1.91635217 -0.05423638 3.83314925 -0.09289963 5.75 -0.125 C7.35101563 -0.15980469 7.35101563 -0.15980469 8.984375 -0.1953125 C11.92470106 -0.00487687 13.52361878 0.47329896 16 2 C14.34385343 2.38218767 12.67542976 2.71395102 11 3 C10.67 2.67 10.34 2.34 10 2 C8.31816052 1.76712992 6.6287584 1.58735834 4.9375 1.4375 C4.01839844 1.35371094 3.09929687 1.26992187 2.15234375 1.18359375 C1.08693359 1.09271484 1.08693359 1.09271484 0 1 C0 0.67 0 0.34 0 0 Z " fill="#BE5154" transform="translate(193,196)"/>
<path d="M0 0 C2.64 0 5.28 0 8 0 C7.67 0.99 7.34 1.98 7 3 C4.9375 3.6875 4.9375 3.6875 3 4 C2.01 2.68 1.02 1.36 0 0 Z " fill="#BA1216" transform="translate(182,314)"/>
<path d="M0 0 C-0.57344937 2.86724686 -0.8614515 3.8614515 -3 6 C-3.33 5.01 -3.66 4.02 -4 3 C-4.99 2.67 -5.98 2.34 -7 2 C-7 1.67 -7 1.34 -7 1 C-2.25 0 -2.25 0 0 0 Z " fill="#BB191E" transform="translate(261,275)"/>
<path d="M0 0 C0 3.59857954 -0.95830515 5.09451118 -3 8 C-3.66 8 -4.32 8 -5 8 C-4.45773019 4.20411134 -2.79872437 2.52788007 0 0 Z " fill="#C14044" transform="translate(38,258)"/>
<path d="M0 0 C0.99 0.33 1.98 0.66 3 1 C2.34 4.3 1.68 7.6 1 11 C0.67 11 0.34 11 0 11 C0 7.37 0 3.74 0 0 Z " fill="#BD4B4B" transform="translate(293,253)"/>
<path d="M0 0 C0.33 0 0.66 0 1 0 C0.25 7.625 0.25 7.625 -2 11 C-2.66 11 -3.32 11 -4 11 C-3.42415568 8.61435923 -2.77772405 6.33317216 -2 4 C-1.34 4 -0.68 4 0 4 C0 2.68 0 1.36 0 0 Z " fill="#BD5051" transform="translate(471,174)"/>
<path d="M0 0 C2.31 0 4.62 0 7 0 C5.35 1.65 3.7 3.3 2 5 C1.01 4.67 0.02 4.34 -1 4 C-0.67 2.68 -0.34 1.36 0 0 Z " fill="#BB1C1F" transform="translate(451,159)"/>
<path d="M0 0 C1.9375 0.375 1.9375 0.375 4 1 C4.33 1.66 4.66 2.32 5 3 C2.69 4.32 0.38 5.64 -2 7 C-2 6.01 -2 5.02 -2 4 C-1.34 4 -0.68 4 0 4 C0 2.68 0 1.36 0 0 Z " fill="#C93F42" transform="translate(114,155)"/>
<path d="M0 0 C-4.75 4 -4.75 4 -7 4 C-7.33 2.68 -7.66 1.36 -8 0 C-4.71303767 -0.79953138 -3.28976808 -1.09658936 0 0 Z " fill="#C03D3F" transform="translate(405,319)"/>
<path d="M0 0 C6.625 0.75 6.625 0.75 10 3 C7.8125 3.75 7.8125 3.75 5 4 C2.1875 2.0625 2.1875 2.0625 0 0 Z " fill="#C83C40" transform="translate(145,292)"/>
<path d="M0 0 C1.98 0.495 1.98 0.495 4 1 C4.33 2.32 4.66 3.64 5 5 C3.68 5.33 2.36 5.66 1 6 C0.34 5.01 -0.32 4.02 -1 3 C-0.67 2.01 -0.34 1.02 0 0 Z " fill="#C82D2C" transform="translate(320,289)"/>
<path d="M0 0 C1.53445094 3.06890187 0.54984289 5.70094266 0 9 C-0.99 9.33 -1.98 9.66 -3 10 C-3 7.69 -3 5.38 -3 3 C-2.34 3 -1.68 3 -1 3 C-0.67 2.01 -0.34 1.02 0 0 Z " fill="#BB1317" transform="translate(213,268)"/>
<path d="M0 0 C0.99 0 1.98 0 3 0 C3.33 2.31 3.66 4.62 4 7 C3.34 7 2.68 7 2 7 C1.566875 6.0409375 1.566875 6.0409375 1.125 5.0625 C0.17176549 2.84793921 0.17176549 2.84793921 -2 2 C-1.34 1.34 -0.68 0.68 0 0 Z " fill="#CC1618" transform="translate(456,271)"/>
<path d="M0 0 C0.66 0.99 1.32 1.98 2 3 C0 6 0 6 -2.625 6.6875 C-3.800625 6.8421875 -3.800625 6.8421875 -5 7 C-4.67 6.01 -4.34 5.02 -4 4 C-3.34 4 -2.68 4 -2 4 C-2 3.34 -2 2.68 -2 2 C-1.34 2 -0.68 2 0 2 C0 1.34 0 0.68 0 0 Z " fill="#C6373B" transform="translate(354,270)"/>
<path d="M0 0 C0.99 0.33 1.98 0.66 3 1 C2.34 2.65 1.68 4.3 1 6 C-0.65 6 -2.3 6 -4 6 C-2.68 4.02 -1.36 2.04 0 0 Z " fill="#C43233" transform="translate(182,267)"/>
<path d="M0 0 C3.57104439 1.87949705 5.54744301 3.17053157 7 7 C6.01 7 5.02 7 4 7 C4 6.34 4 5.68 4 5 C3.01 4.67 2.02 4.34 1 4 C0.3125 1.9375 0.3125 1.9375 0 0 Z " fill="#BE4447" transform="translate(155,144)"/>
<path d="M0 0 C2.1875 0.3125 2.1875 0.3125 4 1 C4.33 2.65 4.66 4.3 5 6 C2.36 5.01 -0.28 4.02 -3 3 C-2.01 2.01 -1.02 1.02 0 0 Z " fill="#CD3438" transform="translate(453,272)"/>
<path d="M0 0 C0.33 0 0.66 0 1 0 C0.53199289 4.05606165 0.12046792 7.46588679 -2 11 C-2.66 9.02 -3.32 7.04 -4 5 C-2.68 4.67 -1.36 4.34 0 4 C0 2.68 0 1.36 0 0 Z " fill="#D67273" transform="translate(136,260)"/>
<path d="M0 0 C2.97 0.495 2.97 0.495 6 1 C5.01 2.485 5.01 2.485 4 4 C0.875 4.1875 0.875 4.1875 -2 4 C-2 3.34 -2 2.68 -2 2 C-1.34 2 -0.68 2 0 2 C0 1.34 0 0.68 0 0 Z " fill="#CC3338" transform="translate(142,138)"/>
<path d="M0 0 C0.66 0 1.32 0 2 0 C3.625 2 3.625 2 5 4 C3.02 4.99 3.02 4.99 1 6 C0 5 0 5 -0.0625 2.4375 C-0.041875 1.633125 -0.02125 0.82875 0 0 Z " fill="#CC3132" transform="translate(218,285)"/>
<path d="M0 0 C1.32 0 2.64 0 4 0 C3.6875 1.875 3.6875 1.875 3 4 C2.01 4.66 1.02 5.32 0 6 C0 4.02 0 2.04 0 0 Z " fill="#C1353B" transform="translate(123,282)"/>
<path d="M0 0 C0.66 0 1.32 0 2 0 C1.6875 2.375 1.6875 2.375 1 5 C0.01 5.66 -0.98 6.32 -2 7 C-2.33 5.35 -2.66 3.7 -3 2 C-2.34 2 -1.68 2 -1 2 C-0.67 1.34 -0.34 0.68 0 0 Z " fill="#CC4D56" transform="translate(357,279)"/>
<path d="M0 0 C0.33 0 0.66 0 1 0 C1.07347656 1.04800781 1.07347656 1.04800781 1.1484375 2.1171875 C1.22320312 3.02726562 1.29796875 3.93734375 1.375 4.875 C1.44460937 5.77992188 1.51421875 6.68484375 1.5859375 7.6171875 C1.79568132 10.17941903 1.79568132 10.17941903 4 12 C3.01 12.33 2.02 12.66 1 13 C-1.30143236 9.54785147 -1.13833854 8.76520676 -0.625 4.8125 C-0.51414063 3.91144531 -0.40328125 3.01039063 -0.2890625 2.08203125 C-0.19367188 1.39496094 -0.09828125 0.70789063 0 0 Z " fill="#E25B60" transform="translate(253,267)"/>
<path d="M0 0 C0.66 0 1.32 0 2 0 C2 2.64 2 5.28 2 8 C1.34 8 0.68 8 0 8 C-1.125 2.25 -1.125 2.25 0 0 Z " fill="#D91317" transform="translate(249,268)"/>
<path d="M0 0 C0.66 0.33 1.32 0.66 2 1 C2.125 3.875 2.125 3.875 2 7 C1.34 7.66 0.68 8.32 0 9 C-0.33 8.67 -0.66 8.34 -1 8 C-0.82364548 5.30917128 -0.38164079 2.67148554 0 0 Z " fill="#D61511" transform="translate(163,252)"/>
<path d="M0 0 C0.99 0 1.98 0 3 0 C2.01 2.97 1.02 5.94 0 9 C-0.95904856 5.16380575 -0.91892116 3.67568464 0 0 Z " fill="#B53D3E" transform="translate(265,224)"/>
<path d="M0 0 C1.125 1.5625 1.125 1.5625 2 4 C1.125 7.75 1.125 7.75 0 11 C-0.33 11 -0.66 11 -1 11 C-2.23076923 4.6 -2.23076923 4.6 -1.0625 1.5625 C-0.711875 1.046875 -0.36125 0.53125 0 0 Z " fill="#C01616" transform="translate(332,208)"/>
<path d="M0 0 C1.98 0.495 1.98 0.495 4 1 C4 1.66 4 2.32 4 3 C4.99 3.33 5.98 3.66 7 4 C5.68 4.33 4.36 4.66 3 5 C3 4.34 3 3.68 3 3 C1.68 3 0.36 3 -1 3 C-0.67 2.01 -0.34 1.02 0 0 Z " fill="#C4161A" transform="translate(335,199)"/>
<path d="M0 0 C0.33 0.66 0.66 1.32 1 2 C0.06421005 4.35981813 -0.93347808 6.69631264 -2 9 C-2.99 8.67 -3.98 8.34 -5 8 C-3.35 5.36 -1.7 2.72 0 0 Z " fill="#C44F51" transform="translate(266,152)"/>
<path d="M0 0 C6.93 0.495 6.93 0.495 14 1 C14 1.33 14 1.66 14 2 C12.41986783 2.25028811 10.83557694 2.47440946 9.25 2.6875 C7.92742187 2.87892578 7.92742187 2.87892578 6.578125 3.07421875 C4 3 4 3 0 0 Z " fill="#B91D1F" transform="translate(329,336)"/>
<path d="M0 0 C-0.66 1.32 -1.32 2.64 -2 4 C-3.32 4 -4.64 4 -6 4 C-6 3.01 -6 2.02 -6 1 C-3.92446352 0.4465236 -2.15634036 0 0 0 Z " fill="#BF393C" transform="translate(118,325)"/>
<path d="M0 0 C1.32 0.33 2.64 0.66 4 1 C4 1.66 4 2.32 4 3 C4.99 3.33 5.98 3.66 7 4 C7 4.66 7 5.32 7 6 C5.68 5.67 4.36 5.34 3 5 C3 4.34 3 3.68 3 3 C2.34 3 1.68 3 1 3 C0.67 2.01 0.34 1.02 0 0 Z " fill="#BC5B5D" transform="translate(228,290)"/>
<path d="M0 0 C0.99 0.66 1.98 1.32 3 2 C1 4 1 4 -2.125 4.125 C-3.548125 4.063125 -3.548125 4.063125 -5 4 C-3.35 2.68 -1.7 1.36 0 0 Z " fill="#C3383E" transform="translate(177,273)"/>
<path d="M0 0 C0.99 0.33 1.98 0.66 3 1 C3 4.3 3 7.6 3 11 C2.67 11 2.34 11 2 11 C1.34 7.37 0.68 3.74 0 0 Z " fill="#C95759" transform="translate(102,250)"/>
<path d="M0 0 C0.66 0 1.32 0 2 0 C1.40138258 2.35171131 0.73075648 4.6859378 0 7 C-0.99 7.495 -0.99 7.495 -2 8 C-2.33 6.68 -2.66 5.36 -3 4 C-2.34 4 -1.68 4 -1 4 C-0.67 2.68 -0.34 1.36 0 0 Z " fill="#C24D50" transform="translate(174,235)"/>
<path d="M0 0 C0.33 0 0.66 0 1 0 C1 2.64 1 5.28 1 8 C0.01 8.33 -0.98 8.66 -2 9 C-1.34 6.03 -0.68 3.06 0 0 Z " fill="#CA595A" transform="translate(428,217)"/>
<path d="M0 0 C0.66 0.66 1.32 1.32 2 2 C1.625 5.125 1.625 5.125 1 8 C0.67 6.68 0.34 5.36 0 4 C-0.99 4 -1.98 4 -3 4 C-3 3.34 -3 2.68 -3 2 C-2.01 2 -1.02 2 0 2 C0 1.34 0 0.68 0 0 Z " fill="#CC373A" transform="translate(414,183)"/>
<path d="M0 0 C0.33 0.66 0.66 1.32 1 2 C0.06421005 4.35981813 -0.93347808 6.69631264 -2 9 C-2.33 9 -2.66 9 -3 9 C-3.36923077 3.46153846 -3.36923077 3.46153846 -1.5 1.125 C-1.005 0.75375 -0.51 0.3825 0 0 Z " fill="#C65059" transform="translate(290,166)"/>
<path d="M0 0 C0 0.66 0 1.32 0 2 C-0.66 2 -1.32 2 -2 2 C-2 2.66 -2 3.32 -2 4 C-3.98 4 -5.96 4 -8 4 C-5.57415142 1.34311822 -3.76063134 0 0 0 Z " fill="#B9393F" transform="translate(279,144)"/>
</svg>
